<svg xmlns="http://www.w3.org/2000/svg" xmlns:xlink="http://www.w3.org/1999/xlink" width="43" height="60" viewBox="0 0 43 60"><defs><path id="ozfka" d="M274 400.55c0 3.77-1.11 8.13-3.3 12.97a78.66 78.66 0 0 1-7.17 12.3 121.85 121.85 0 0 1-10.4 12.91.89.89 0 0 1-1.27 0c-.05-.05-5.26-5.54-10.4-12.9a78.65 78.65 0 0 1-7.16-12.31c-2.19-4.84-3.3-9.2-3.3-12.97A21.55 21.55 0 0 1 252.5 379c11.85 0 21.5 9.67 21.5 21.55zm-1.76 0a19.79 19.79 0 0 0-19.74-19.79 19.79 19.79 0 0 0-19.74 19.79c0 6.34 3.5 14.73 10.14 24.25a122.93 122.93 0 0 0 9.6 12.03c1.53-1.68 5.59-6.27 9.6-12.03 6.64-9.52 10.14-17.9 10.14-24.25zm-3.86 0c0 8.77-7.13 15.9-15.88 15.9a15.91 15.91 0 1 1 3.97-31.31.88.88 0 0 1-.44 1.7 14.14 14.14 0 0 0-17.65 13.7c0 7.8 6.33 14.16 14.12 14.16a14.15 14.15 0 0 0 7.35-26.24c-.16-.1-.35-.18-.48-.32a.89.89 0 0 1 .24-1.4.89.89 0 0 1 .81.02 15.92 15.92 0 0 1 7.95 13.79zm-11.26-6.87h.76a.44.44 0 1 1 0 .89h-.76a.44.44 0 1 1 0-.9zm-2.63 0h.77a.44.44 0 1 1 0 .89h-.77a.44.44 0 1 1 0-.9zm-2.63 0h.76a.44.44 0 1 1 0 .89h-.76a.44.44 0 1 1 0-.9zm5.26 2.08h.76a.44.44 0 1 1 0 .89h-.76a.44.44 0 1 1 0-.89zm-2.63 0h.77a.44.44 0 1 1 0 .89h-.77a.44.44 0 1 1 0-.89zm-2.63 0h.76a.44.44 0 1 1 0 .89h-.76a.44.44 0 1 1 0-.89zm5.26 2.08h.76a.44.44 0 1 1 0 .9h-.76a.44.44 0 1 1 0-.9zm-2.63 0h.77a.44.44 0 1 1 0 .9h-.77a.44.44 0 1 1 0-.9zm-2.63 0h.76a.44.44 0 1 1 0 .9h-.76a.44.44 0 1 1 0-.9zm5.26 2.08h.76a.44.44 0 1 1 0 .89h-.76a.44.44 0 1 1 0-.89zm-2.63 0h.77a.44.44 0 1 1 0 .89h-.77a.44.44 0 1 1 0-.89zm-2.63 0h.76a.44.44 0 1 1 0 .89h-.76a.44.44 0 1 1 0-.89zm5.26 2.08h.76a.44.44 0 1 1 0 .9h-.76a.44.44 0 1 1 0-.89zm-2.63 0h.77a.44.44 0 1 1 0 .9h-.77a.44.44 0 1 1 0-.9zm-2.63 0h.76a.44.44 0 1 1 0 .9h-.76a.44.44 0 1 1 0-.9zm-7.42-4.9h5.3v-4.65c0-.25.2-.45.45-.45h9.36c.25 0 .45.2.45.45v15.1c0 .25-.2.45-.45.45h-15.1a.44.44 0 0 1-.45-.45v-10.01c0-.25.2-.45.44-.45zm9.48 10.01h1.9v-2.42h-1.9zm-3.28 0h2.4v-2.86c0-.25.2-.45.44-.45h2.79c.24 0 .44.2.44.45v2.86h2.4V392.9h-8.47zm-5.75 0h4.86v-9.13h-4.86zm1.23-8.23h2.4a.44.44 0 1 1 0 .9h-2.4a.44.44 0 1 1 0-.9zm0 2.15h2.4a.44.44 0 1 1 0 .89h-2.4a.44.44 0 1 1 0-.9zm0 2.14h2.4a.44.44 0 1 1 0 .9h-2.4a.44.44 0 1 1 0-.9zm0 2.15h2.4a.44.44 0 1 1 0 .89h-2.4a.44.44 0 1 1 0-.9z"/></defs><g><g transform="translate(-231 -379)"><use fill="#1677bb" xlink:href="#ozfka"/></g></g></svg>