<svg xmlns="http://www.w3.org/2000/svg" xmlns:xlink="http://www.w3.org/1999/xlink" width="21" height="30" viewBox="0 0 21 30"><defs><path id="fhawa" d="M587 1518.2a.75.75 0 0 1-.75.8H582v-1.48h3.43l-1.36-17.13H581v1.68c.45.25.75.73.75 1.27 0 .82-.67 1.48-1.5 1.48s-1.5-.66-1.5-1.48c0-.55.3-1.02.75-1.27v-1.68h-6v1.68c.45.25.75.73.75 1.27 0 .82-.67 1.48-1.5 1.48s-1.5-.66-1.5-1.48c0-.54.3-1.02.75-1.27v-1.68h-3.07l-1.36 17.13H572v1.48h-5.25a.75.75 0 0 1-.55-.24.73.73 0 0 1-.2-.56l1.5-18.62a.75.75 0 0 1 .75-.67H572v-1.48a4.47 4.47 0 0 1 4.5-4.43c2.48 0 4.5 1.99 4.5 4.43v1.48h3.75c.39 0 .71.3.75.67zm-13.5-19.3h6v-1.47a2.98 2.98 0 0 0-3-2.95c-1.65 0-3 1.32-3 2.95zm3.7 9.19l2.74 3.33c.07.1.08.2.04.3-.05.11-.12.17-.23.17H578v10.83c0 .08-.02.15-.07.2a.23.23 0 0 1-.18.08h-1.5a.23.23 0 0 1-.18-.08.29.29 0 0 1-.07-.2v-10.83h-1.75c-.1 0-.18-.06-.23-.17a.3.3 0 0 1 .05-.3l2.77-3.33a.24.24 0 0 1 .18-.09c.07 0 .13.03.18.09z"/></defs><g><g transform="translate(-566 -1493)"><use fill="#1979bc" xlink:href="#fhawa"/></g></g></svg>