<svg xmlns="http://www.w3.org/2000/svg" xmlns:xlink="http://www.w3.org/1999/xlink" width="8" height="13" viewBox="0 0 8 13"><defs><path id="ebm2a" d="M877.83 2935.87l-.7-.65a.4.4 0 0 1-.13-.3.4.4 0 0 1 .14-.3l5.4-5.12-5.4-5.12a.4.4 0 0 1-.14-.3.4.4 0 0 1 .14-.3l.69-.65c.09-.09.2-.13.31-.13.12 0 .23.04.32.13l6.4 6.07c.1.09.14.19.14.3a.4.4 0 0 1-.14.3l-6.4 6.07c-.1.09-.2.13-.32.13a.44.44 0 0 1-.31-.13z"/></defs><g><g transform="translate(-877 -2923)"><use fill="#1677bb" xlink:href="#ebm2a"/></g></g></svg>