<svg xmlns="http://www.w3.org/2000/svg" xmlns:xlink="http://www.w3.org/1999/xlink" width="49" height="48" viewBox="0 0 49 48"><defs><path id="6ljqa" d="M854.2 605.63h-1.4a18.23 18.23 0 0 0-18.2-18.23 18.23 18.23 0 0 0-.7 36.45v-4.48l5.19 5.2-5.19 5.2v-4.52a19.64 19.64 0 0 1 .7-39.25c10.81 0 19.6 8.8 19.6 19.63zm-18.9 20.74l1.8-1.8-1.8-1.82zm9.8-31.26v21.04h-21v-21.04zm-12.6 1.4v2.82h4.2v-2.81zm11.2 0h-5.6v4.21h-7v-4.2h-5.6v18.23h18.2zm-1.1 13.57l-1.05.93-.65-.73v3.06h-1.4v-3.06l-.65.73-1.05-.93 2.4-2.7zm-5.83 0l-1.04.93-.66-.73v3.06h-1.4v-3.06l-.64.73-1.05-.93 2.4-2.7zm6.18 16.69a2.83 2.83 0 0 1-.65-1.88 2.9 2.9 0 0 1 .61-1.62c-.3-.77-.42-1.97.6-2.9.73-.7 2-1 3.74-.91 1.23.05 2.26.28 2.3.3l.74.14c.01-.3-.04-1.05-.59-2.74-.65-2.01-.61-3.55.12-4.58a2.95 2.95 0 0 1 2.38-1.17c.35 0 .67.15.9.42.52.6.46 1.73.4 2.25.6 1.67 2.34 5.77 3.8 6.91l.07.07c.43.46.72.95.92 1.39.27-.16.58-.24.92-.24h2.85c1.07 0 1.94.88 1.94 1.97v7.67c0 1.09-.87 1.97-1.94 1.97h-2.85c-.41 0-.8-.14-1.12-.36l-1.1.13c-.16.02-3.15.4-6.22.34-.55.05-1.08.07-1.56.07-.84 0-1.57-.07-2.17-.2-1.43-.3-2.4-.92-2.9-1.82a2.92 2.92 0 0 1-.32-1.81 3.03 3.03 0 0 1-.87-3.4zm19.1 5.77c.39 0 .69-.31.69-.69v-7.68c0-.38-.3-.69-.68-.69h-2.85a.69.69 0 0 0-.68.69v7.68c0 .38.3.69.68.69h2.85zm-17.9-6.32c.2.2.23.52.08.77 0 0-.2.33-.21.78-.04.62.26 1.17.87 1.64.22.17.31.46.22.73 0 0-.2.62.12 1.21.32.57 1.01.98 2.07 1.2.84.19 2 .22 3.4.1h.07c3 .07 6.03-.32 6.06-.33l.48-.05a2.02 2.02 0 0 1-.04-.42v-7.68c0-.2.03-.4.09-.59a3.96 3.96 0 0 0-.87-1.62c-2.1-1.68-4.15-7.35-4.23-7.6a.6.6 0 0 1-.03-.31c.08-.53.05-1.18-.06-1.37-.25 0-.92.07-1.32.64-.48.66-.46 1.85.06 3.43.78 2.4.85 3.67.22 4.23a1 1 0 0 1-1.01.18c-.29-.07-.56-.12-.82-.16l-.06-.02c-1.43-.32-4-.5-4.89.31-.75.7-.22 1.63-.16 1.73.18.26.12.6-.1.82-.01 0-.5.47-.53 1.1-.02.42.18.85.59 1.28z"/></defs><g><g transform="translate(-815 -586)"><use fill="#1677bb" xlink:href="#6ljqa"/></g></g></svg>