<svg xmlns="http://www.w3.org/2000/svg" xmlns:xlink="http://www.w3.org/1999/xlink" width="28" height="28" viewBox="0 0 28 28"><defs><path id="v19ea" d="M746 802.6c0 2.98-2.46 5.4-5.48 5.4a5.45 5.45 0 0 1-5.48-5.4c0-2.99 2.46-5.41 5.48-5.41a5.45 5.45 0 0 1 5.48 5.4zm-1.22 0c0-2.32-1.9-4.21-4.26-4.21a4.24 4.24 0 0 0-4.26 4.2c0 2.32 1.91 4.2 4.26 4.2a4.24 4.24 0 0 0 4.26-4.2zm-1.36-1.42l-3.04 3.6a.61.61 0 0 1-.9.04l-1.82-1.8a.6.6 0 0 1 0-.85.61.61 0 0 1 .86 0l1.35 1.34 2.62-3.1c.21-.26.6-.3.86-.08.25.21.29.6.07.85zm-2.29-20.58v14.79a.6.6 0 0 1-.6.6.6.6 0 0 1-.62-.6V781.2h-20.7v23.94l2.13-1.26a.61.61 0 0 1 .68.04l2.1 1.56 2.7-1.6a.61.61 0 0 1 .68.04l2.1 1.56 2.7-1.6a.61.61 0 0 1 .83.2.6.6 0 0 1-.2.83l-3.05 1.8a.61.61 0 0 1-.68-.03l-2.1-1.56-2.7 1.6a.62.62 0 0 1-.68-.04l-2.1-1.56-2.7 1.6a.62.62 0 0 1-.61 0 .6.6 0 0 1-.31-.52v-25.6c0-.33.27-.6.6-.6h21.92c.34 0 .61.27.61.6zm-15.83 4.14a.6.6 0 0 1-.6.6h-3.05a.6.6 0 0 1-.6-.6c0-.33.27-.6.6-.6h3.05c.33 0 .6.27.6.6zm11.57 5.84a.6.6 0 0 1-.6.6h-3.05a.6.6 0 0 1-.61-.6c0-.33.27-.6.6-.6h3.05c.34 0 .61.27.61.6zm0 3a.6.6 0 0 1-.6.6h-3.05a.6.6 0 0 1-.61-.6c0-.33.27-.6.6-.6h3.05c.34 0 .61.27.61.6zm0 3a.6.6 0 0 1-.6.6h-3.05a.6.6 0 0 1-.61-.6c0-.32.27-.6.6-.6h3.05c.34 0 .61.28.61.6zm-6.09-6a.6.6 0 0 1-.6.6h-8.53a.6.6 0 0 1-.6-.6c0-.33.27-.6.6-.6h8.52c.34 0 .61.27.61.6zm0 3a.6.6 0 0 1-.6.6h-8.53a.6.6 0 0 1-.6-.6c0-.33.27-.6.6-.6h8.52c.34 0 .61.27.61.6zm0 3a.6.6 0 0 1-.6.6h-8.53a.6.6 0 0 1-.6-.6c0-.32.27-.6.6-.6h8.52c.34 0 .61.28.61.6z"/></defs><g><g transform="translate(-718 -780)"><use fill="#1677bb" xlink:href="#v19ea"/></g></g></svg>