<svg xmlns="http://www.w3.org/2000/svg" xmlns:xlink="http://www.w3.org/1999/xlink" width="40" height="40" viewBox="0 0 40 40"><defs><path id="qmcxa" d="M761 1701c0 11.03-8.97 20-20 20s-20-8.97-20-20 8.97-20 20-20 20 8.97 20 20zm-1.54 0a18.48 18.48 0 0 0-18.46-18.46 18.48 18.48 0 0 0-18.46 18.46 18.48 18.48 0 0 0 18.46 18.46 18.48 18.48 0 0 0 18.46-18.46zm-17.7-11.54v16.92a.77.77 0 1 1-1.53 0v-16.92a.77.77 0 1 1 1.54 0zm0 20.77v1.54a.77.77 0 1 1-1.53 0v-1.54a.77.77 0 1 1 1.54 0z"/></defs><g><g transform="translate(-721 -1681)"><use fill="#1677bb" xlink:href="#qmcxa"/></g></g></svg>