<svg xmlns="http://www.w3.org/2000/svg" xmlns:xlink="http://www.w3.org/1999/xlink" width="23" height="23" viewBox="0 0 23 23"><defs><path id="8zmza" d="M859.86 1565.92c.49.49.74 1.07.74 1.67 0 .6-.25 1.18-.73 1.68-.2.22-.42.42-.63.62-.3.3-.6.58-.85.88l-.02.03a3.66 3.66 0 0 1-3.11 1.19c-1.67-.1-3.16-.73-4.28-1.26a22.86 22.86 0 0 1-7.62-5.96 20.89 20.89 0 0 1-3.72-6.2 8.5 8.5 0 0 1-.62-3.6c.08-.87.43-1.63 1.06-2.25l1.65-1.67a2.38 2.38 0 0 1 1.66-.72c.6 0 1.16.25 1.63.71.32.3.62.6.91.9l.46.47 1.32 1.32c1.02 1.02 1.02 2.34 0 3.36l-.4.41c-.37.37-.73.75-1.13 1.11.3.66.7 1.3 1.3 2.07a16.7 16.7 0 0 0 4.01 3.64c.14.09.3.17.48.26.12.06.25.12.38.2l1.53-1.54c.5-.49 1.07-.75 1.66-.75.6 0 1.18.27 1.65.76zm-.94.92l-2.68-2.68c-.16-.17-.4-.36-.7-.36-.31 0-.57.2-.74.36l-1.66 1.67c-.08.08-.34.33-.74.33-.16 0-.32-.04-.48-.12l-.06-.04-.48-.25c-.2-.1-.4-.2-.6-.33a17.85 17.85 0 0 1-4.32-3.92 10.64 10.64 0 0 1-1.57-2.56l-.02-.05c-.08-.27-.16-.68.26-1.1l.02-.02c.42-.38.81-.77 1.22-1.19l.42-.41c.51-.52.51-1 0-1.5l-1.33-1.33-.46-.48c-.3-.3-.58-.59-.87-.86l-.02-.02c-.15-.15-.4-.34-.7-.34-.26 0-.51.12-.75.35l-1.66 1.65c-.4.4-.62.87-.67 1.44-.07.9.1 1.83.55 3.04a19.7 19.7 0 0 0 3.5 5.82c2 2.4 4.42 4.28 7.17 5.61 1 .48 2.35 1.05 3.8 1.14h.22c.76 0 1.34-.24 1.83-.77.3-.35.62-.67.93-.97l.6-.6c0 .01 0 0 0 0 .5-.5.5-1.01 0-1.51zm-8.02-13.13c.06-.35.4-.59.76-.53a7.5 7.5 0 0 1 6.16 6.16c.06.35-.18.7-.54.75l-.1.01a.65.65 0 0 1-.65-.54 6.19 6.19 0 0 0-5.1-5.09.65.65 0 0 1-.53-.76zm10.56 6.18l-.12.01a.65.65 0 0 1-.64-.54 11.05 11.05 0 0 0-9.07-9.06.65.65 0 1 1 .21-1.3c2.54.44 4.85 1.64 6.68 3.47a12.31 12.31 0 0 1 3.47 6.68c.06.35-.18.69-.53.74z"/></defs><g><g transform="translate(-839 -1549)"><use fill="#1677bb" xlink:href="#8zmza"/></g></g></svg>