<svg xmlns="http://www.w3.org/2000/svg" xmlns:xlink="http://www.w3.org/1999/xlink" width="23" height="22" viewBox="0 0 23 22"><defs><path id="dw4oa" d="M808.55 3892.08v2.07c0 .68-.57 1.23-1.26 1.23h-2.1c-.7 0-1.26-.55-1.26-1.23v-2.07c0-.67.56-1.22 1.25-1.22h2.11c.7 0 1.26.55 1.26 1.22zm-1.1 0a.15.15 0 0 0-.16-.15h-2.1a.15.15 0 0 0-.16.15v2.07c0 .08.07.15.15.15h2.11c.09 0 .16-.07.16-.15zm3.55.75v12.34a4.89 4.89 0 0 1-4.93 4.83h-13.14a4.89 4.89 0 0 1-4.93-4.83v-12.34a4.88 4.88 0 0 1 4.93-4.83h13.14a4.88 4.88 0 0 1 4.93 4.83zm-1.1 4.3h-5.52a6.33 6.33 0 0 1 1.7 4.28 6.51 6.51 0 0 1-6.58 6.44 6.51 6.51 0 0 1-6.57-6.44c0-1.65.64-3.15 1.69-4.29h-5.53v8.05a3.8 3.8 0 0 0 3.84 3.76h13.14a3.8 3.8 0 0 0 3.84-3.76zm-15.88 4.28a5.43 5.43 0 0 0 5.48 5.37c3.02 0 5.48-2.4 5.48-5.37a5.43 5.43 0 0 0-5.48-5.36 5.43 5.43 0 0 0-5.48 5.36zm15.89-8.58a3.8 3.8 0 0 0-3.84-3.76h-13.14a3.8 3.8 0 0 0-3.84 3.76v3.22h6.79a6.63 6.63 0 0 1 7.25 0h6.78zm-14.24 8.58a3.8 3.8 0 0 1 3.83-3.75 3.8 3.8 0 0 1 3.83 3.75 3.8 3.8 0 0 1-3.83 3.76 3.8 3.8 0 0 1-3.83-3.76zm1.1 0a2.71 2.71 0 0 0 2.73 2.69c1.51 0 2.74-1.2 2.74-2.69a2.71 2.71 0 0 0-2.74-2.68 2.71 2.71 0 0 0-2.74 2.68z"/></defs><g><g transform="translate(-788 -3888)"><use fill="#fff" xlink:href="#dw4oa"/></g></g></svg>