<svg xmlns="http://www.w3.org/2000/svg" xmlns:xlink="http://www.w3.org/1999/xlink" width="45" height="60" viewBox="0 0 45 60"><defs><path id="uh4ba" d="M262.4 235.44v2.76c0 .96-.79 1.74-1.76 1.74h-1.81a.84.84 0 0 1-.85-.84c0-.47.38-.84.85-.84h1.81c.04 0 .06-.03.06-.06v-2.76c0-.4-.24-.74-.6-.89l-2.83-1.11c-.67-.27-1.1-.9-1.1-1.61v-.37a4.5 4.5 0 0 1-3.76 0v.37c0 .7-.43 1.34-1.1 1.6l-2.83 1.12c-.37.15-.6.5-.6.89v2.76c0 .03.02.06.05.06h7.26c.47 0 .85.37.85.84 0 .46-.38.84-.85.84h-7.26c-.97 0-1.76-.78-1.76-1.74v-2.76c0-1.08.66-2.04 1.68-2.44l2.83-1.12c.02-.01.03-.03.03-.05v-1.72a4.36 4.36 0 0 1-.9-2.66v-2.69c0-1.95 2-3.53 4.48-3.53 2.47 0 4.48 1.58 4.48 3.53v2.69c0 1-.34 1.92-.9 2.66v1.72c0 .02 0 .04.03.05l2.83 1.12a2.62 2.62 0 0 1 1.67 2.44zm-5.33-10.68c0-1-1.27-1.85-2.78-1.85-1.51 0-2.79.85-2.79 1.85v2.69a2.77 2.77 0 0 0 2.79 2.74 2.77 2.77 0 0 0 2.78-2.74zM276 217.8v46.67c0 1.95-1.6 3.53-3.57 3.53h-37.86a3.55 3.55 0 0 1-3.57-3.53V217.8c0-1.95 1.6-3.53 3.57-3.53h7.62c.47 0 .85.38.85.84 0 .46-.38.84-.85.84h-7.62c-1.03 0-1.87.83-1.87 1.85v46.67c0 1.02.84 1.85 1.87 1.85h37.86c1.03 0 1.87-.83 1.87-1.85V217.8c0-1.02-.84-1.85-1.87-1.85h-9.4v.95c0 .96-.8 1.74-1.77 1.74h-14.52c-.97 0-1.76-.78-1.76-1.74v-2.69c0-.95.79-1.73 1.76-1.73h2.78v-.06A4.46 4.46 0 0 1 254 208a4.46 4.46 0 0 1 4.48 4.42v.06h2.78c.97 0 1.76.78 1.76 1.73v.06h9.4a3.55 3.55 0 0 1 3.58 3.53zm-14.68-.9v-2.69a.06.06 0 0 0-.06-.05h-3.63a.84.84 0 0 1-.85-.84v-.9a2.77 2.77 0 0 0-2.78-2.74 2.77 2.77 0 0 0-2.78 2.74v.9c0 .46-.38.84-.85.84h-3.63a.06.06 0 0 0-.06.05v2.7c0 .02.02.05.06.05h14.52c.04 0 .06-.03.06-.06zm-6.46-4.47l-.01.9c0 .46-.38.83-.85.83a.84.84 0 0 1-.85-.85l.01-.9c0-.46.39-.83.86-.83s.84.39.84.85zm14.78 33.43v1.8c0 .95-.79 1.73-1.75 1.73H240.9c-.97 0-1.76-.78-1.76-1.73v-1.8c0-.95.79-1.73 1.76-1.73h26.98c.97 0 1.75.78 1.75 1.73zm-1.7 1.8v-1.8a.06.06 0 0 0-.05-.05H240.9a.06.06 0 0 0-.06.05v1.8c0 .03.03.05.06.05h26.98c.03 0 .05-.02.05-.05zm-24.37 8.96c0 .46-.38.83-.85.83h-1.81a.84.84 0 0 1-.85-.83c0-.47.38-.84.85-.84h1.81c.47 0 .85.37.85.84zm24.8 0c0 .46-.37.83-.84.83h-21.17a.84.84 0 0 1-.85-.83c0-.47.38-.84.85-.84h21.17c.47 0 .85.37.85.84zm0 4.58c0 .46-.37.84-.84.84h-21.17a.84.84 0 0 1-.85-.84c0-.46.38-.84.85-.84h21.17c.47 0 .85.38.85.84zm-24.8 0c0 .46-.38.84-.85.84h-1.81a.84.84 0 0 1-.85-.84c0-.46.38-.84.85-.84h1.81c.47 0 .85.38.85.84zm0-8.58c0 .46-.38.83-.85.83h-1.81a.84.84 0 0 1-.85-.83c0-.47.38-.84.85-.84h1.81c.47 0 .85.37.85.84zm24.8 0c0 .46-.37.83-.84.83h-21.17a.84.84 0 0 1-.85-.83c0-.47.38-.84.85-.84h21.17c.47 0 .85.37.85.84z"/></defs><g><g transform="translate(-231 -208)"><use fill="#1677bb" xlink:href="#uh4ba"/></g></g></svg>