<svg xmlns="http://www.w3.org/2000/svg" xmlns:xlink="http://www.w3.org/1999/xlink" width="31" height="31" viewBox="0 0 31 31"><defs><path id="n5oba" d="M329.35 401.35a2.2 2.2 0 0 1-2.28.53l-6.19-2.13a15.2 15.2 0 0 1-6.7 1.57h-.02c-3.99 0-7.76-1.55-10.62-4.35a15.06 15.06 0 0 1-3.4-16.6 15.09 15.09 0 0 1 8.22-8.22 15.06 15.06 0 0 1 16.6 3.4 15.07 15.07 0 0 1 2.8 17.33l2.12 6.2c.28.8.07 1.67-.53 2.27zm-1.2-1.68l-2.26-6.56a.92.92 0 0 1 .05-.73c1-1.9 1.54-4.04 1.54-6.2a13.37 13.37 0 0 0-13.1-13.34 13.22 13.22 0 0 0-9.64 3.9c-2.57 2.57-3.96 6-3.9 9.63a13.38 13.38 0 0 0 13.34 13.11c2.16 0 4.3-.54 6.2-1.54a.92.92 0 0 1 .73-.06l6.56 2.26c.2.07.32-.03.38-.09s.16-.19.1-.38zm-13.22-5.79c.02.5-.44.92-.92.92a.93.93 0 0 1-.92-.92c-.02-.5.44-.92.92-.92.52 0 .9.42.92.92zm3.65-10.58c0 2.2-1.57 4.05-3.65 4.48v2.92a.92.92 0 0 1-1.84 0v-3.74c0-.51.41-.92.92-.92a2.74 2.74 0 1 0-2.73-2.74.92.92 0 0 1-1.84 0 4.58 4.58 0 0 1 9.14 0z"/></defs><g><g transform="translate(-299 -371)"><use fill="#368ad2" xlink:href="#n5oba"/></g></g></svg>