<svg xmlns="http://www.w3.org/2000/svg" xmlns:xlink="http://www.w3.org/1999/xlink" width="43" height="60" viewBox="0 0 43 60"><defs><path id="c8f2a" d="M567 400.55c0 3.77-1.11 8.13-3.3 12.97a78.66 78.66 0 0 1-7.17 12.3 121.85 121.85 0 0 1-10.4 12.91.89.89 0 0 1-1.27 0c-.05-.05-5.26-5.54-10.4-12.9a78.65 78.65 0 0 1-7.16-12.31c-2.19-4.84-3.3-9.2-3.3-12.97A21.55 21.55 0 0 1 545.5 379c11.85 0 21.5 9.67 21.5 21.55zm-1.76 0a19.79 19.79 0 0 0-19.74-19.79 19.79 19.79 0 0 0-19.74 19.79c0 6.34 3.5 14.73 10.14 24.25a122.93 122.93 0 0 0 9.6 12.03c1.53-1.68 5.59-6.27 9.6-12.03 6.64-9.52 10.14-17.9 10.14-24.25zm-3.86 0c0 8.77-7.13 15.9-15.88 15.9a15.91 15.91 0 1 1 3.97-31.31.88.88 0 0 1-.44 1.7 14.14 14.14 0 0 0-17.65 13.7c0 7.8 6.33 14.16 14.12 14.16a14.15 14.15 0 0 0 7.35-26.24c-.16-.1-.35-.18-.48-.32a.89.89 0 0 1 .24-1.4.89.89 0 0 1 .81.02 15.92 15.92 0 0 1 7.95 13.79zm-12.73-.11h-7.17a.7.7 0 0 1-.7-.7c0-.4.31-.7.7-.7h7.17c.39 0 .7.3.7.7a.7.7 0 0 1-.7.7zm-2.81 1.4a.7.7 0 1 1 0 1.4h-4.36a.7.7 0 0 1-.7-.7c0-.38.31-.7.7-.7zm-2.03 7.46a.7.7 0 0 1-.7.7h-2.32a2.8 2.8 0 0 1-2.79-2.81V394.8a2.8 2.8 0 0 1 2.79-2.81h8.56a2.8 2.8 0 0 1 2.78 2.81v4.33a.7.7 0 0 1-.7.7.7.7 0 0 1-.69-.7v-4.33c0-.77-.62-1.4-1.4-1.4h-8.55c-.77 0-1.4.63-1.4 1.4v12.38c0 .77.63 1.4 1.4 1.4h2.33c.38 0 .7.32.7.7zm9.56-4.14l-3.82 3.85a.7.7 0 0 1-.3.18l-2.81.78a.7.7 0 0 1-.69-.18.7.7 0 0 1-.17-.7l.84-2.77a.7.7 0 0 1 .17-.29l3.82-3.85a2.08 2.08 0 0 1 2.96 0c.81.82.81 2.16 0 2.98zm-2.1.14l-1-1-2.57 2.6-.42 1.38 1.42-.4zm1.11-2.13a.7.7 0 0 0-.98 0l-.14.14.99 1 .13-.14a.7.7 0 0 0 0-1zm-3.03-6.25a.7.7 0 0 1-.7.7h-7.17a.7.7 0 0 1-.7-.7c0-.39.31-.7.7-.7h7.17c.39 0 .7.31.7.7z"/></defs><g><g transform="translate(-524 -379)"><use fill="#1677bb" xlink:href="#c8f2a"/></g></g></svg>