<svg xmlns="http://www.w3.org/2000/svg" xmlns:xlink="http://www.w3.org/1999/xlink" width="47" height="57" viewBox="0 0 47 57"><defs><path id="z3dfa" d="M263.16 736.98a.95.95 0 0 1 .25-.47.89.89 0 0 1 .3-.2.9.9 0 0 1 1.11.34.88.88 0 0 1 .14.33.9.9 0 0 1-.39.94.93.93 0 0 1-.69.13.86.86 0 0 1-.33-.13.88.88 0 0 1-.34-.41.92.92 0 0 1-.05-.53zm-26.39.28l.02-.03c.84-1.98 2.82-2.7 5.17-1.9l6.4 1.76a4.2 4.2 0 0 1 2.61-2.56l7.03-2.39a7.25 7.25 0 0 1 5.85-2.7c2.4 0 4.52 1.65 5.74 3.45h8.5c.5 0 .91.4.91.92v11.57c0 .5-.41.92-.92.92h-5.46a.92.92 0 0 1-.91-.92v-.8h-2.56a.92.92 0 0 1-.92-.9v-.27c-1.5.13-1.98.41-3.35 1.2a55.51 55.51 0 0 1-5.56 2.83c-.55.22-1.63.56-2.95.56-.93 0-1.97-.16-3.04-.65l-14.14-5.06a.85.85 0 0 1-.07-.03c-1.36-.63-3.37-2.38-2.35-5zm36.77 7.2h3.62v-9.74h-3.62zm-3.48-1.7h1.65v-8.04h-1.65zm-30.21-2.19l14.13 5.06a1.19 1.19 0 0 1 .08.03c1.96.9 3.84.37 4.57.08 2.77-1.24 4.25-2.1 5.33-2.72 1.5-.87 2.22-1.28 4.27-1.45v-7.4c-.87-1.42-2.56-2.88-4.38-2.88a5.3 5.3 0 0 0-4.5 2.1.92.92 0 0 1-.48.4l-7.3 2.47c-1.16.44-1.78 1.44-1.5 2.43a1.78 1.78 0 0 0 2.2 1.24l8.23-2.6a.92.92 0 1 1 .55 1.74l-8.23 2.61-.03.01a3.64 3.64 0 0 1-2.76-.32 3.6 3.6 0 0 1-1.77-2.4l-6.9-1.9c-1-.35-2.3-.47-2.88.87-.6 1.57.96 2.44 1.37 2.63zm6.19-37.5a.88.88 0 0 1 .14-.33.88.88 0 0 1 .4-.34.91.91 0 0 1 1.12.34.93.93 0 0 1 .14.7.86.86 0 0 1-.14.32.88.88 0 0 1-.4.34.94.94 0 0 1-.54.05.98.98 0 0 1-.33-.14.88.88 0 0 1-.34-.4.86.86 0 0 1-.07-.36c0-.06 0-.12.02-.18zm-13.12-8.96h5.46c.5 0 .91.4.91.92v.79h2.56c.51 0 .92.4.92.92v.26c1.5-.13 1.98-.41 3.35-1.2a55.55 55.55 0 0 1 5.56-2.84 7.81 7.81 0 0 1 6 .1l3.69 1.32 3.11-3.11a.92.92 0 0 1 1.3 0L276 701.49c.33.33.4.9 0 1.3l-17.47 17.47c-.28.28-.93.36-1.3 0l-9.33-9.33c-.24.02-.5.03-.75.03-2.4 0-4.52-1.65-5.74-3.44h-8.5a.92.92 0 0 1-.91-.92v-11.57c0-.51.41-.92.92-.92zm32.21-.9l-2.1 2.1a3.96 3.96 0 0 0 4.2 0zm6.83 11.02l2.1-2.09-2.1-2.1a3.96 3.96 0 0 0 0 4.2zm-14.07 14.08l2.09-2.1a4 4 0 0 0-4.19 0zm-3.42-3.41a5.83 5.83 0 0 1 6.83 0l9.34-9.35a5.78 5.78 0 0 1 0-6.83l-2.1-2.09a5.78 5.78 0 0 1-6.82 0l-1.99 1.99a3.62 3.62 0 0 1 2.73 2 5.23 5.23 0 1 1-6.01 6.47l-3.1 1.06c.35 1.61-.01 3.31-.98 4.65zm5.58-9.03h-.02l-1.84.63a3.4 3.4 0 1 0 4.61-3.88 4.06 4.06 0 0 1-2.75 3.25zm-9 5.6c.36-.57.56-1.23.59-1.9-.44.32-.98.63-1.62.87zm-8.28-5.24c.87 1.43 2.56 2.9 4.38 2.9a6.68 6.68 0 0 0 .96-.08 5.26 5.26 0 0 0 3.4-1.86l.11-.15c.1-.19.28-.34.5-.42l7.3-2.48c1.17-.43 1.78-1.43 1.5-2.43a1.78 1.78 0 0 0-2.2-1.23l-8.22 2.6a.92.92 0 1 1-.55-1.74l6.54-2.08.05-.05 3.4-3.4-2.92-1.04H257l-.01-.01a5.95 5.95 0 0 0-4.6-.1c-2.78 1.25-4.26 2.1-5.34 2.73-1.5.86-2.22 1.28-4.27 1.45zm-3.48-.55h1.65v-8.03h-1.65zm-5.45 0h3.62v-9.74h-3.62z"/></defs><g><g transform="translate(-232 -691)"><use fill="#1677bb" xlink:href="#z3dfa"/></g></g></svg>