<svg xmlns="http://www.w3.org/2000/svg" xmlns:xlink="http://www.w3.org/1999/xlink" width="43" height="60" viewBox="0 0 43 60"><defs><path id="f77aa" d="M664 229.55c0 3.77-1.11 8.13-3.3 12.97a78.65 78.65 0 0 1-7.17 12.3 121.86 121.86 0 0 1-10.4 12.91.89.89 0 0 1-1.27 0c-.05-.05-5.26-5.54-10.4-12.9a78.65 78.65 0 0 1-7.16-12.31c-2.19-4.84-3.3-9.2-3.3-12.97A21.55 21.55 0 0 1 642.5 208c11.85 0 21.5 9.67 21.5 21.55zm-1.76 0a19.79 19.79 0 0 0-19.74-19.79 19.79 19.79 0 0 0-19.74 19.79c0 6.34 3.5 14.73 10.14 24.25a122.91 122.91 0 0 0 9.6 12.03c1.53-1.68 5.59-6.27 9.6-12.03 6.64-9.52 10.14-17.91 10.14-24.25zm-3.86 0c0 8.77-7.13 15.9-15.88 15.9a15.91 15.91 0 1 1 3.97-31.31.88.88 0 0 1-.44 1.7 14.14 14.14 0 1 0-3.53 27.86 14.15 14.15 0 0 0 7.35-26.24c-.16-.1-.35-.18-.48-.32a.89.89 0 0 1 .24-1.4.89.89 0 0 1 .81.02 15.92 15.92 0 0 1 7.95 13.79zm-26.33-.27a.69.69 0 0 1 .17-.77l9.98-9.31a.75.75 0 0 1 1.02 0l9.55 9.32c.2.2.26.5.15.76a.73.73 0 0 1-.67.44h-2.07v6.58c0 .38-.33.7-.73.7h-4.76a.72.72 0 0 1-.74-.7v-4.82h-3.05v4.82c0 .38-.33.7-.73.7h-5a.72.72 0 0 1-.74-.7v-6.58h-1.7a.71.71 0 0 1-.68-.44zm2.48-.97h.64c.4 0 .73.32.73.7v6.58h3.54v-4.81c0-.4.33-.7.73-.7h4.52c.4 0 .73.3.73.7v4.81h3.3v-6.58c0-.38.32-.7.73-.7h1.05l-7.82-7.61z"/></defs><g><g transform="translate(-621 -208)"><use fill="#1677bb" xlink:href="#f77aa"/></g></g></svg>