<svg xmlns="http://www.w3.org/2000/svg" xmlns:xlink="http://www.w3.org/1999/xlink" width="57" height="68" viewBox="0 0 57 68"><defs><path id="rr9wa" d="M413 1680a1 1 0 1 1 0 2 1 1 0 0 1 0-2zm3 1a1 1 0 1 1 0 2 1 1 0 0 1 0-2zm3 2a1 1 0 1 1 0 2 1 1 0 0 1 0-2zm-26.7-7.85a28.23 28.23 0 0 1 11.32-5.25v-3.57h-.6a.92.92 0 0 1-.92-.92v-2.08a4.31 4.31 0 0 1 4.28-4.33h6.24a4.31 4.31 0 0 1 4.28 4.33v2.08c0 .5-.4.92-.91.92h-.61v3.57a28.82 28.82 0 0 1 22.62 28.24c0 15.91-12.78 28.86-28.5 28.86s-28.5-12.95-28.5-28.86c0-6.67 2.25-12.81 6.01-17.7zm11.62-10.67h11.16v-1.15c0-1.37-1.1-2.48-2.46-2.48h-6.24a2.47 2.47 0 0 0-2.46 2.48zm1.53 5.1a28.25 28.25 0 0 1 8.1 0v-3.18h-8.1zM388.2 1679c.83-.96 1.73-1.85 2.68-2.69zm47.98 19.13c0-14.89-11.96-27-26.67-27-14.7 0-26.67 12.11-26.67 27 0 14.9 11.96 27.01 26.67 27.01 14.7 0 26.67-12.12 26.67-27zm-4.45 0c0 12.41-9.97 22.5-22.22 22.5-12.25 0-22.22-10.09-22.22-22.5 0-12.4 9.97-22.5 22.22-22.5 12.25 0 22.22 10.1 22.22 22.5zm-1.82 0c0-11.39-9.15-20.65-20.4-20.65-11.25 0-20.4 9.26-20.4 20.65 0 11.4 9.15 20.66 20.4 20.66 11.25 0 20.4-9.27 20.4-20.66zm-17.1 0a3.33 3.33 0 0 1-3.3 3.35c-1.82 0-3.3-1.5-3.3-3.35 0-.43 2.4-12 2.4-12a.92.92 0 0 1 .9-.74c.43 0 .8.3.9.74 0 0 2.4 11.57 2.4 12zm-4.1-3.24a3.27 3.27 0 0 1 1.6 0l-.8-3.96zm2.27 3.24c0-.82-.66-1.5-1.47-1.5-.81 0-1.48.68-1.48 1.5 0 .83.67 1.5 1.48 1.5.81 0 1.47-.67 1.47-1.5zm-.56 15.25v3.58c0 .51-.4.93-.91.93a.92.92 0 0 1-.91-.93v-3.58c0-.51.4-.92.91-.92.5 0 .91.41.91.92zm-1.82-30.5v-3.58c0-.5.4-.92.91-.92.5 0 .91.41.91.92v3.58c0 .51-.4.93-.91.93a.92.92 0 0 1-.91-.93zm-9.1 25.38c.36.36.36.95 0 1.3l-2.5 2.54a.9.9 0 0 1-1.29 0 .93.93 0 0 1 0-1.3l2.5-2.54a.9.9 0 0 1 1.3 0zm14.75-15.91c0-.27.1-.51.29-.68l7.47-7.5a.9.9 0 0 1 1.3 0c.35.35.35.94 0 1.3l-7.5 7.53a.9.9 0 0 1-.65.27.92.92 0 0 1-.91-.92zm-18.89 5.78c0 .51-.4.93-.91.93h-3.54a.92.92 0 0 1-.91-.93c0-.5.4-.92.91-.92h3.54c.5 0 .91.41.91.92zm33.66 0c0 .51-.4.93-.91.93h-3.54a.92.92 0 0 1-.91-.93c0-.5.4-.92.91-.92h3.54c.5 0 .91.41.91.92zm-33.3-12.66a.93.93 0 0 1 0-1.3.9.9 0 0 1 1.29 0l2.48 2.51c.18.17.28.4.28.67 0 .51-.4.92-.9.92h-.01a.9.9 0 0 1-.65-.27zm27.59 25.32c.35.36.35.95 0 1.31a.9.9 0 0 1-1.3 0l-2.5-2.53a.93.93 0 0 1 0-1.3.9.9 0 0 1 1.3 0z"/></defs><g><g transform="translate(-381 -1659)"><use fill="#1677bb" xlink:href="#rr9wa"/></g></g></svg>