<svg xmlns="http://www.w3.org/2000/svg" xmlns:xlink="http://www.w3.org/1999/xlink" width="9" height="14" viewBox="0 0 9 14"><defs><path id="ki73a" d="M249.07 702.86l.77-.7c.1-.1.16-.2.16-.32a.43.43 0 0 0-.16-.33l-6.07-5.51 6.07-5.51c.1-.1.16-.2.16-.33a.42.42 0 0 0-.16-.32l-.77-.7a.51.51 0 0 0-.35-.14.51.51 0 0 0-.36.14l-7.2 6.54c-.1.1-.16.2-.16.32s.05.23.16.32l7.2 6.54c.1.1.22.14.36.14.13 0 .25-.05.35-.14z"/></defs><g><g transform="translate(-241 -689)"><use fill="#16baf1" xlink:href="#ki73a"/></g></g></svg>