<svg xmlns="http://www.w3.org/2000/svg" xmlns:xlink="http://www.w3.org/1999/xlink" width="31" height="26" viewBox="0 0 31 26"><defs><path id="qp20a" d="M257.86 471.47l-.34 1.51a51.77 51.77 0 0 0-22.04 0l-.35-1.51a53.4 53.4 0 0 1 22.73 0zm-13.57-3.16c.02.59.3 1.1.72 1.46-1.3.04-2.6.13-3.9.27.36-.42.57-.97.51-1.55a2 2 0 0 0-1.33-1.65c1.7-.19 3.39-.3 5.08-.33a1.97 1.97 0 0 0-1.08 1.8zm7.09.18c-.06.58.15 1.13.5 1.55-1.29-.14-2.59-.22-3.89-.26.42-.37.7-.88.72-1.47.04-.77-.4-1.43-1.08-1.8 1.7.03 3.4.14 5.08.33a2 2 0 0 0-1.33 1.65zm3.57-1.35c1.1.18 2.2.38 3.3.62l-.73 3.18c-.89-.19-1.77-.36-2.67-.5.47-.31.82-.78.93-1.36.14-.75-.21-1.48-.83-1.94zm-17.72 1.94c.1.57.46 1.05.92 1.35-.9.15-1.78.32-2.67.51l-.73-3.18c1.1-.24 2.2-.44 3.3-.62a1.96 1.96 0 0 0-.82 1.94zm19.94-5.7l.57.48c-.31.36-.67.72-1.06 1.09l-.51-.53c.37-.35.7-.7 1-1.03zm1.42-5l.71-.23c.17.5.26 1 .26 1.53l-.75.01a4 4 0 0 0-.22-1.3zm0 2.62l.7.24-.04.1c-.1.38-.3.83-.59 1.3l-.64-.37c.25-.41.43-.8.52-1.16zm-21.76 3.42l-.52.53c-.38-.37-.74-.73-1.05-1.08l.57-.48c.3.33.63.68 1 1.03zm-2.64-4.74l-.75.01c0-.53.09-1.05.26-1.54l.7.23c-.14.42-.2.86-.2 1.3zm.27 1.43c.09.36.26.75.52 1.16l-.64.37c-.3-.47-.5-.92-.6-1.35l.68-.29zm5.8 1.9c.28.36.57.72.87 1.07l-.57.47c-.32-.37-.62-.74-.9-1.12zm1.36-9.88l-.12-.71a3.71 3.71 0 0 1 1.57.07l-.19.7c-.41-.1-.84-.12-1.26-.06zm-3.44 7.83l.69-.28c.16.38.37.78.62 1.19l-.64.37c-.27-.44-.5-.87-.67-1.28zm-.43-1.39a6.8 6.8 0 0 1-.21-1.45l.74-.02a6 6 0 0 0 .2 1.3zm6.28-5.82l.45-.58c.4.29.75.65 1.07 1.08l-.61.42a4.22 4.22 0 0 0-.91-.92zm-4.56.69l-.58-.46c.32-.38.69-.71 1.09-.97l.47.57c-.4.26-.7.53-.98.86zm-1.08 2.35l-.74-.14c.1-.49.25-.96.45-1.4l.68.29c-.18.4-.3.82-.4 1.25zm9.67-2.1l-.62-.42c.31-.42.67-.79 1.07-1.08l.45.58c-.34.24-.64.56-.9.92zm6.65 3.38l.75.02c-.01.5-.08.98-.2 1.45l-.73-.17c.11-.42.17-.86.18-1.3zm-1.2 3.77c.25-.41.46-.82.62-1.2l.69.28c-.18.42-.4.85-.67 1.3zm1.1-5.08a5.6 5.6 0 0 0-.4-1.24l.68-.3c.2.44.36.91.45 1.4zm-2-3.14l-.07-.05.4-.61.08.05c.4.26.75.57 1.07.94l-.57.47a4.21 4.21 0 0 0-.9-.8zm-2.51-.42l-.2-.7a3.84 3.84 0 0 1 1.57-.09l-.12.72a3.1 3.1 0 0 0-1.25.07zm2.36 11.32l-.58-.46c.3-.36.59-.72.86-1.09l.6.43c-.27.37-.57.75-.88 1.12zm9.15-2.92c-.32 1.36-1.3 2.8-2.57 4.2l.12.01-.34 1.51a57.86 57.86 0 0 0-24.63 0l-.35-1.5c-1.21-1.42-2.17-2.9-2.49-4.3a7.36 7.36 0 0 1 6.96-9.55 5.93 5.93 0 0 1 7.44-.13V450h-1.91v-1.46h1.91v-1.54h1.5v1.54h1.91v1.46h-1.91v1.83a5.92 5.92 0 0 1 7.47.15c1.13.08 2.23.37 3.22.88a7.31 7.31 0 0 1 4.06 6.45c0 .77-.13 1.54-.39 2.28zm-14.36-7.66v7.22c.87.3 1.5 1.1 1.5 2.06 0 .48-.19.92-.47 1.28 1.49.05 2.97.13 4.45.28 1.4-1.63 2.54-3.37 2.84-4.96.18-.66.27-1.28.27-1.91 0-2.17-1-4.16-2.61-5.2-1.96-1.26-4.48-.72-5.98 1.23zm-1.5 9.27c0 .4.34.73.75.73s.75-.32.75-.72c0-.4-.34-.73-.75-.73a.74.74 0 0 0-.75.72zm-8.59-5.3c0 .62.09 1.24.26 1.85.3 1.6 1.46 3.37 2.86 5.02 1.48-.15 2.96-.24 4.44-.28a2.1 2.1 0 0 1-.46-1.29c0-.94.63-1.74 1.5-2.05v-7.22a4.64 4.64 0 0 0-3.65-1.94c-.82 0-1.6.24-2.34.7a6.14 6.14 0 0 0-2.6 5.2zm-1.64 7.58c1-.18 2.02-.35 3.03-.48-1.27-1.6-2.28-3.31-2.59-4.92a8.1 8.1 0 0 1-.14-3.69c-.3.24-.56.5-.78.8l-.6-.44c.31-.41.69-.78 1.12-1.1l.32.4c.2-.88.54-1.7 1-2.42a5.9 5.9 0 0 0-4.09 7.5c.32 1.4 1.38 2.9 2.73 4.35zm24.99-6.17a5.86 5.86 0 0 0-4.33-5.59c.42.7.75 1.49.94 2.33l.32-.4c.43.32.8.69 1.12 1.1l-.6.43a4.91 4.91 0 0 0-.78-.79 8.31 8.31 0 0 1-.16 3.74c-.3 1.6-1.3 3.28-2.56 4.87.97.13 1.93.28 2.88.46 1.41-1.43 2.51-2.91 2.84-4.27.22-.66.33-1.27.33-1.88z"/></defs><g><g transform="translate(-231 -447)"><use fill="#1677bb" xlink:href="#qp20a"/></g></g></svg>