<svg xmlns="http://www.w3.org/2000/svg" xmlns:xlink="http://www.w3.org/1999/xlink" width="9" height="14" viewBox="0 0 9 14"><defs><path id="jbn1a" d="M762.93 702.86l-.77-.7a.42.42 0 0 1-.16-.32c0-.13.05-.23.16-.33l6.07-5.51-6.07-5.51a.43.43 0 0 1-.16-.33c0-.12.05-.22.16-.32l.77-.7c.1-.1.22-.14.35-.14.14 0 .26.05.36.14l7.2 6.54c.1.1.16.2.16.32s-.05.23-.16.32l-7.2 6.54c-.1.1-.22.14-.36.14a.51.51 0 0 1-.35-.14z"/></defs><g><g transform="translate(-762 -689)"><use fill="#16baf1" xlink:href="#jbn1a"/></g></g></svg>