<svg xmlns="http://www.w3.org/2000/svg" xmlns:xlink="http://www.w3.org/1999/xlink" width="60" height="66" viewBox="0 0 60 66"><defs><path id="nh5pa" d="M814.33 1862.2c.35.32.38.86.07 1.22L800.55 1879a.86.86 0 0 1-1.19.1l-8.65-6.92a.87.87 0 0 1 1.08-1.36l8.01 6.41 13.3-14.96a.87.87 0 0 1 1.23-.07zm14.66 8.17c-.02 3.21-.96 6.35-2.71 9.05-.63.97-1.32 1.9-1.99 2.79a24.69 24.69 0 0 0-3 4.71 18.48 18.48 0 0 0-1.46 9.66c.24 2.2.68 4.38 1.31 6.5.34 1.08.75 2.14 1.25 3.15.23.43.5.83.8 1.21a7.6 7.6 0 0 1 1.25 2.14c.1.33.04.7-.17.97-.2.28-.54.45-.89.45h-28.02a1.1 1.1 0 0 1-1.08-.84c-.4-1.66-1.98-6.08-4.47-7.54a90.97 90.97 0 0 1-9.35 2.78 4.1 4.1 0 0 1-4.83-2.9 6.38 6.38 0 0 1-.2-3.83c.13-.43.17-.88.11-1.33-.08-.35-.34-.52-1-.89-.25-.15-.52-.3-.77-.47-.35-.25-.59-.64-.65-1.07-.04-.56.08-1.11.36-1.6-.38-.28-.79-.6-1.03-.8-1.02-.86-.34-2.06.07-2.77l.48-.9c.15-.35.2-.74.12-1.1-.06-.3-.86-.7-1.33-.94-.4-.2-.8-.42-1.16-.67a3.41 3.41 0 0 1-1.6-2.05c-.18-1.15.66-2.27 1.45-3.23a42.5 42.5 0 0 0 5.05-8.3c0-.32-.36-.67-.9-1.16a4.2 4.2 0 0 1-1.62-2.45c-.06-.64.04-1.27.3-1.85.2-.52.42-1.04.65-1.55.4-.8.71-1.62.94-2.48l.1-.4c.25-1.21.59-2.4 1-3.58a20.84 20.84 0 0 1 4.44-7.19c2.48-2.59 6.1-4.33 11.1-5.33a74.85 74.85 0 0 1 10.73-1.52c6.84-.35 12.68 1.67 18.94 6.54a18.24 18.24 0 0 1 6.62 9.45 32.67 32.67 0 0 1 1.16 9.34zm-3.29-8.74a15.88 15.88 0 0 0-5.86-8.32c-5.8-4.52-11.18-6.39-17.46-6.08-3.5.25-6.97.74-10.4 1.48-4.53.9-7.78 2.44-9.93 4.7a18.66 18.66 0 0 0-3.97 6.43c-.38 1.09-.69 2.2-.92 3.32l-.1.4c-.26 1-.62 1.96-1.07 2.88-.21.47-.43.94-.6 1.42-.12.24-.18.5-.19.78.05.33.47.72.92 1.12a3.83 3.83 0 0 1 1.63 2.76 3.16 3.16 0 0 1-.44 1.49 44.31 44.31 0 0 1-5.06 8.17c-.86 1.03-1.03 1.44-1.03 1.6a5.7 5.7 0 0 0 1.57 1.06c.95.48 2.25 1.13 2.5 2.48.17.83.06 1.7-.29 2.46a16.45 16.45 0 0 1-.73 1.36c.45.36 1.09.83 1.35 1.02a1.1 1.1 0 0 1 .22 1.57c-.17.2-.31.44-.43.68l.24.13a3.64 3.64 0 0 1 2.04 2.26c.16.77.13 1.58-.1 2.34l-.14.69c-.06.66.03 1.32.27 1.94a1.96 1.96 0 0 0 2.29 1.48 92.6 92.6 0 0 0 9.52-2.86 397.66 397.66 0 0 0 4.69-1.6c4.6-1.44 5.54-3.1 5.5-4.23a1.1 1.1 0 0 1 1.1-1.12 1.1 1.1 0 0 1 1.13 1.07c.06 2.75-2.32 4.9-7.07 6.37l-1.77.6-.82.3a17.52 17.52 0 0 1 3.9 7.02h25.26a38.34 38.34 0 0 1-3.81-11.96c-.45-3.68.11-7.4 1.61-10.8a26.8 26.8 0 0 1 3.26-5.14c.65-.86 1.32-1.76 1.9-2.66a14.68 14.68 0 0 0 2.36-7.9c.07-2.94-.3-5.87-1.07-8.7z"/></defs><g><g transform="translate(-769 -1845)"><use fill="#2b83c1" xlink:href="#nh5pa"/></g></g></svg>