<svg xmlns="http://www.w3.org/2000/svg" xmlns:xlink="http://www.w3.org/1999/xlink" width="30" height="21" viewBox="0 0 30 21"><defs><path id="otz8a" d="M268 799.9v-10.8a5.1 5.1 0 0 1 5.09-5.1h19.82a5.1 5.1 0 0 1 5.09 5.1v10.8a5.1 5.1 0 0 1-5.1 5.1H273.1a5.1 5.1 0 0 1-5.1-5.1zm5.09-14.45c-2 0-3.64 1.63-3.64 3.64v10.82c0 2 1.64 3.64 3.64 3.64h19.82c2 0 3.64-1.64 3.64-3.64v-10.82c0-2-1.64-3.64-3.64-3.64zm21 13.25h-4.06v-2.18h4.06zm-6.04 0h-4.06v-2.18h4.06zm-6.04 0h-4.06v-2.18H282zm-6.04 0h-4.06v-2.18h4.06zm18.12-8.24h-9.45v-2.18h9.45z"/></defs><g><g transform="translate(-268 -784)"><use fill="#1677bb" xlink:href="#otz8a"/></g></g></svg>