<svg xmlns="http://www.w3.org/2000/svg" xmlns:xlink="http://www.w3.org/1999/xlink" width="59" height="67" viewBox="0 0 59 67"><defs><path id="6ij7a" d="M830 1669.89V1727c0 .55-.44.99-.98.99h-57.04a.99.99 0 0 1-.98-.99V1662c0-.55.44-.99.98-.99h50.21a.96.96 0 0 1 .39.1c.11.06.21.14.3.23l6.88 7.9c.07.09.12.18.16.28l.03.1c.02.07.04.15.04.22l.01.06zm-6.88-.99h3.73l-3.73-4.28zm4.91 32.36a1.42 1.42 0 0 0-2 .05l-.8 8.11a2.61 2.61 0 0 1-5.2-.01l-.7-7.42a1.14 1.14 0 0 0-2.27-.01l-.7 7.43a2.61 2.61 0 0 1-5.19.01l-.7-7.1a1.78 1.78 0 0 0-2.24 0l-.7 7.1a2.61 2.61 0 0 1-5.2-.01l-.7-7.42a1.14 1.14 0 0 0-2.27-.01l-.7 7.43a2.61 2.61 0 0 1-5.19.01l-.69-6.93a1.78 1.78 0 0 0-1.8-.27l-.49.48-.67 6.72a2.61 2.61 0 0 1-5.19-.01l-.7-7.42a1.14 1.14 0 0 0-2.27-.01l-.7 7.43a2.61 2.61 0 0 1-5.18.01l-.81-8.1a1.42 1.42 0 0 0-2-.06v24.77h55.06zm-51.98-3.06l.25.73 10.78-10.82c-.68.08-1.34.39-1.86.9-.66.67-1.52 1-2.39 1.01l-7.1 7.13c.1.36.2.7.32 1.05zm.8 2.4a1 1 0 0 1 .05.22l.13 1.33 12.88-12.94a3.2 3.2 0 0 0-1.48-.98l-11.76 11.81zm.88 8.63c.02.19.12.36.27.46l1.07-1.08.3-3.26-1.84 1.85zm1.97-7.42c.04-.44.16-.85.36-1.22l-2.9 2.9.24 2.36 2.12-2.13zm2.87-2.87c.52-.03 1.02.06 1.46.25l6.6-6.63c.02-.42.04-.85.04-1.28 0-.4-.08-.78-.21-1.14l-9.12 9.16c.37-.2.79-.32 1.23-.36zm4.02 10.29a.64.64 0 0 0 1.28 0l.43-4.33-1.93 1.94zm2.11-8.41l.05-.21.16-.5-2.9 2.94.23 2.44 2.22-2.23zm-8.32-11.8a3.2 3.2 0 0 0-.06-.05l-5.2 5.21c.08.6.19 1.2.32 1.79l6.14-6.17a3.42 3.42 0 0 1-1.2-.78zm-2.26-.94a3.2 3.2 0 0 0-3.19 3.2c0 .52.02 1.04.06 1.56l4.45-4.47a3.18 3.18 0 0 0-1.32-.29zm14.21 12.09l-.45-1.34-.23-.82-.23.82-.45 1.34c.45-.08.91-.08 1.36 0zm1.42-1.97l.8 2.4a1 1 0 0 1 .05.22l.83 8.4a.64.64 0 0 0 1.28 0l.7-7.4a3.11 3.11 0 0 1 6.2.01l.68 7.4a.64.64 0 0 0 1.28 0l.83-8.41.05-.21.8-2.4a21.9 21.9 0 0 0 1.12-6.93 3.18 3.18 0 0 0-5.44-2.26 3.42 3.42 0 0 1-4.85 0 3.18 3.18 0 0 0-5.45 2.26c0 2.35.38 4.69 1.12 6.92zm16.22 1.8l-.39-1.17-.23-.82-.23.82-.4 1.16c.42-.07.84-.07 1.25 0zm1.48-1.8l.8 2.4a1 1 0 0 1 .05.22l.83 8.4a.64.64 0 0 0 1.28 0l.7-7.4a3.11 3.11 0 0 1 6.2.01l.68 7.4a.64.64 0 0 0 1.28 0l.83-8.41.05-.21.8-2.4a21.9 21.9 0 0 0 1.12-6.93 3.18 3.18 0 0 0-5.44-2.26 3.42 3.42 0 0 1-4.85 0 3.18 3.18 0 0 0-5.45 2.26c0 2.35.38 4.69 1.12 6.92zm15.36.63l-.02.08c.09 0 .17-.03.26-.03.33 0 .67.06.98.16v-7.74c0 2.56-.4 5.1-1.22 7.53zm1.22-27.95h-5.9a.99.99 0 0 1-.98-1v-6.9h-48.18v28.3a5.14 5.14 0 0 1 8.8-3.66c.57.57 1.5.57 2.06 0a5.13 5.13 0 0 1 7.82.65 5.12 5.12 0 0 1 7.82-.64c.57.56 1.5.56 2.06 0a5.13 5.13 0 0 1 7.82.64 5.12 5.12 0 0 1 7.82-.64c.57.56 1.5.56 2.06 0a5.14 5.14 0 0 1 8.8 3.65zm-55.06 20.41v7.75c.31-.1.65-.16.98-.17.09 0 .17.03.26.04l-.03-.08a23.92 23.92 0 0 1-1.21-7.54zm17.5 2.91l-5.55 5.58c.52.49.88 1.16.96 1.92l3.78-3.83c.37-1.2.65-2.43.81-3.67zm9.75-3.71a.73.73 0 0 1 .82.18.76.76 0 0 1 .14.22.7.7 0 0 1 0 .56.86.86 0 0 1-.16.24.78.78 0 0 1-.52.22.76.76 0 0 1-.55-.24.76.76 0 0 1-.13-.22.7.7 0 0 1 0-.56.85.85 0 0 1 .19-.27c.06-.06.13-.1.21-.13zm1.23 2.37l.11-.09a.55.55 0 0 1 .13-.06c.05-.03.1-.04.14-.05.25-.05.5.03.67.2l.09.12c.03.04.05.08.06.13.03.04.04.09.05.14l.01.14-.01.15-.05.13a.58.58 0 0 1-.06.13l-.1.11-.1.1a.56.56 0 0 1-.13.06.45.45 0 0 1-.15.04l-.13.02c-.05 0-.1 0-.15-.02a.45.45 0 0 1-.14-.04.57.57 0 0 1-.13-.07l-.1-.09a.75.75 0 0 1 0-1.05zm2.95 0a.74.74 0 0 1 1.05 0l.09.11c.02.04.05.09.06.14l.05.13.01.15c0 .2-.08.38-.21.52l-.11.1a.56.56 0 0 1-.14.06.49.49 0 0 1-.13.04l-.15.02a.77.77 0 0 1-.52-.22.74.74 0 0 1 0-1.05zm-1.67-1.54l-.02-.15a.85.85 0 0 1 .21-.53l.12-.09a.57.57 0 0 1 .13-.06.74.74 0 0 1 .8.16c.07.06.12.15.16.24a.74.74 0 0 1 .04.43c0 .04-.02.09-.04.13a.57.57 0 0 1-.07.13l-.09.11-.1.1a.56.56 0 0 1-.14.06.46.46 0 0 1-.14.04.9.9 0 0 1-.14.02c-.05 0-.1 0-.15-.02a.47.47 0 0 1-.13-.04.55.55 0 0 1-.13-.07l-.11-.09-.1-.1a.54.54 0 0 1-.06-.14.49.49 0 0 1-.04-.13zm4.35-.43a.7.7 0 0 1 0 .56.87.87 0 0 1-.16.24.78.78 0 0 1-.52.22.76.76 0 0 1-.52-.22.86.86 0 0 1-.16-.24.7.7 0 0 1 0-.56.85.85 0 0 1 .16-.25.77.77 0 0 1 1.04 0c.07.07.12.16.16.25zm-5.84 4.72a.85.85 0 0 1-.06.28.77.77 0 0 1-.15.24.76.76 0 0 1-.53.22.76.76 0 0 1-.54-.23.78.78 0 0 1-.2-.54.71.71 0 0 1 .46-.65c.27-.12.6-.06.8.15a.75.75 0 0 1 .16.25l.04.13a1 1 0 0 1 .02.15zm1.46 2.08l.01.14-.01.15-.05.13a.57.57 0 0 1-.06.13l-.1.11-.1.1a.56.56 0 0 1-.13.06.46.46 0 0 1-.15.04.9.9 0 0 1-.13.02c-.05 0-.1 0-.15-.02a.45.45 0 0 1-.14-.04.56.56 0 0 1-.13-.07l-.1-.09a.75.75 0 0 1 0-1.05l.1-.09a.55.55 0 0 1 .13-.06c.05-.03.1-.04.14-.05.25-.05.5.03.67.2l.09.12c.03.04.05.08.06.13.03.04.04.09.05.14zm2.95 0l.01.14a.74.74 0 1 1-1.38.37.75.75 0 0 1 .8-1.1l.12.05c.05.01.1.04.14.06l.1.1.1.1c.02.04.05.09.06.14.03.04.04.09.05.14zm-1.46-2.08a.86.86 0 0 1-.06.28.41.41 0 0 1-.07.12l-.09.12a.77.77 0 0 1-.67.2.48.48 0 0 1-.13-.04.56.56 0 0 1-.13-.07l-.11-.09-.1-.12a.4.4 0 0 1-.06-.12.46.46 0 0 1-.04-.14l-.02-.14c0-.05 0-.1.02-.15 0-.05.02-.1.04-.13l.07-.14.09-.1.1-.1a.57.57 0 0 1 .14-.06.47.47 0 0 1 .13-.05c.1-.02.2-.02.29 0 .05 0 .1.02.14.05.05.01.1.04.13.06l.11.1.1.1.06.14.04.13.02.15zm2.89-.28a.7.7 0 0 1 0 .56.77.77 0 0 1-.16.24.78.78 0 0 1-.52.22.76.76 0 0 1-.52-.22.86.86 0 0 1-.16-.24.7.7 0 0 1 0-.56.85.85 0 0 1 .16-.25.77.77 0 0 1 1.04 0c.07.07.12.16.16.25zm-13.16-3.88a.7.7 0 0 1 0-.56.85.85 0 0 1 .16-.25.76.76 0 0 1 .24-.15c.27-.12.6-.06.8.15.07.07.12.16.16.25a.7.7 0 0 1 0 .56.86.86 0 0 1-.16.24.78.78 0 0 1-.52.22c-.1 0-.2-.02-.28-.06a.76.76 0 0 1-.24-.16.76.76 0 0 1-.16-.24zm1.63 1.41l.11-.09a.55.55 0 0 1 .13-.06c.05-.03.1-.04.14-.05.25-.05.5.03.67.2l.09.12c.03.04.05.08.06.13.03.04.04.09.05.14l.01.14-.01.15-.05.13a.58.58 0 0 1-.06.13l-.1.11-.1.1a.56.56 0 0 1-.13.06.45.45 0 0 1-.15.04l-.13.02c-.05 0-.1 0-.15-.02a.45.45 0 0 1-.14-.04.57.57 0 0 1-.13-.07l-.1-.09a.75.75 0 0 1 0-1.05zm2.95 0a.74.74 0 0 1 1.05 0l.09.11c.02.04.05.09.06.14l.05.13.01.15c0 .2-.08.38-.21.52l-.11.1a.56.56 0 0 1-.14.06.49.49 0 0 1-.13.04l-.15.02a.77.77 0 0 1-.52-.22.74.74 0 0 1 0-1.05zm-1.67-1.54l-.02-.15a.85.85 0 0 1 .21-.53l.12-.09a.57.57 0 0 1 .13-.06.74.74 0 0 1 .8.16c.07.06.12.15.16.24a.74.74 0 0 1 .04.43c0 .04-.02.09-.04.13a.57.57 0 0 1-.07.13l-.09.11-.1.1a.56.56 0 0 1-.14.06.46.46 0 0 1-.14.04.9.9 0 0 1-.14.02c-.05 0-.1 0-.15-.02a.47.47 0 0 1-.13-.04.55.55 0 0 1-.13-.07l-.11-.09-.1-.1a.54.54 0 0 1-.06-.14.49.49 0 0 1-.04-.13zm-1.5 4.29a.85.85 0 0 1-.05.28.42.42 0 0 1-.07.12l-.09.12a.76.76 0 0 1-.52.22c-.1 0-.2-.02-.28-.06a.76.76 0 0 1-.24-.16.78.78 0 0 1-.22-.52c0-.3.18-.58.46-.68.27-.12.6-.06.8.15l.1.11.06.14.04.13.02.15zm1.47 2.08l.01.14-.01.15-.05.13a.57.57 0 0 1-.06.13l-.1.11-.1.1a.56.56 0 0 1-.13.06.46.46 0 0 1-.15.04.9.9 0 0 1-.13.02c-.05 0-.1 0-.15-.02a.45.45 0 0 1-.14-.04.56.56 0 0 1-.13-.07l-.1-.09a.75.75 0 0 1 0-1.05l.1-.09a.55.55 0 0 1 .13-.06c.05-.03.1-.04.14-.05.25-.05.5.03.67.2l.09.12c.03.04.05.08.06.13.03.04.04.09.05.14zm2.95 0l.01.14a.74.74 0 1 1-1.38.37.75.75 0 0 1 .8-1.1l.12.05c.05.01.1.04.14.06l.1.1.1.1c.02.04.05.09.06.14.03.04.04.09.05.14zm-1.46-2.08a.86.86 0 0 1-.06.28.41.41 0 0 1-.07.12l-.09.12a.77.77 0 0 1-.67.2.48.48 0 0 1-.13-.04.56.56 0 0 1-.13-.07l-.11-.09-.1-.12a.4.4 0 0 1-.06-.12.46.46 0 0 1-.04-.14l-.02-.14c0-.05 0-.1.02-.15 0-.05.02-.1.04-.13l.07-.14.09-.1.1-.1a.57.57 0 0 1 .14-.06.47.47 0 0 1 .13-.05c.1-.02.2-.02.29 0 .05 0 .1.02.14.05.05.01.1.04.13.06l.11.1.1.1.06.14.04.13.02.15zm-20.37 20.33h7.86v1.97h-7.86zm0 3.95h7.86v1.97h-7.86zm18-3.95h7.86v1.97h-7.86zm0 3.95h7.86v1.97h-7.86zm18-3.95h7.86v1.97h-7.86zm0 3.95h7.86v1.97h-7.86z"/></defs><g><g transform="translate(-771 -1661)"><use fill="#217dbe" xlink:href="#6ij7a"/></g></g></svg>