<svg xmlns="http://www.w3.org/2000/svg" xmlns:xlink="http://www.w3.org/1999/xlink" width="62" height="68" viewBox="0 0 62 68"><defs><path id="qqi3a" d="M1213 1694.78v8.62c0 2.64-.66 5.27-1.92 7.59l-8.89 16.46c-.18.34-.53.55-.92.55h-2.92a1.05 1.05 0 1 1 0-2.1h2.3l8.6-15.92a13.88 13.88 0 0 0 1.66-6.58v-8.62c0-1.02-.83-1.85-1.84-1.85-1.01 0-1.83.83-1.83 1.85v7.56a3.97 3.97 0 0 1-1.06 3.63l-10.11 10.17c-.35.35-.54.82-.54 1.32 0 .58-.47 1.06-1.05 1.06-.58 0-1.05-.48-1.05-1.06 0-1.06.41-2.06 1.16-2.8l10.1-10.18c.24-.24.4-.53.48-.84.06-.36.03-.78-.03-1.03a1.58 1.58 0 0 0-.45-.74 1.82 1.82 0 0 0-2.59 0l-10.1 10.17a7.64 7.64 0 0 0-2.24 5.42v8.43h2.53c.58 0 1.05.47 1.05 1.06 0 .58-.47 1.05-1.05 1.05h-3.57c-.58 0-1.05-.47-1.05-1.05v-9.49a9.74 9.74 0 0 1 2.84-6.91l10.1-10.18a3.89 3.89 0 0 1 4.53-.74v-4.85a3.95 3.95 0 0 1 3.93-3.96 3.95 3.95 0 0 1 3.93 3.96zm-16.68 32.17c0 .58-.47 1.05-1.05 1.05h-.02a1.05 1.05 0 1 1 0-2.1h.02c.58 0 1.05.46 1.05 1.05zm-19.99-9.49v9.49c0 .58-.47 1.05-1.05 1.05h-3.57a1.05 1.05 0 1 1 0-2.1h2.53v-8.44c0-2.05-.8-3.97-2.23-5.42l-10.11-10.17a1.82 1.82 0 0 0-2.6 0c-.71.71-.71 1.89 0 2.6l10.11 10.18a3.96 3.96 0 0 1 1.16 2.81 1.05 1.05 0 0 1-2.1 0c0-.5-.19-.97-.54-1.32l-10.1-10.17a3.97 3.97 0 0 1-1.07-3.63v-7.56c0-1.02-.82-1.85-1.83-1.85-1.01 0-1.84.83-1.84 1.85v8.62c0 2.3.58 4.57 1.67 6.58l8.59 15.91h2.3c.58 0 1.05.47 1.05 1.06 0 .58-.47 1.05-1.05 1.05h-2.92c-.39 0-.74-.21-.92-.55l-8.9-16.46a16.01 16.01 0 0 1-1.91-7.59v-8.62a3.95 3.95 0 0 1 3.93-3.96 3.95 3.95 0 0 1 3.93 3.96v4.85a3.89 3.89 0 0 1 4.52.74l10.1 10.18a9.75 9.75 0 0 1 2.85 6.91zm-6.54 9.49c0 .58-.47 1.05-1.04 1.05h-.02a1.05 1.05 0 1 1 0-2.1h.02c.57 0 1.04.46 1.04 1.05zm40.11-44.65c0 .58-.47 1.05-1.05 1.05h-.47v.48c0 .58-.47 1.05-1.04 1.05-.58 0-1.05-.47-1.05-1.05v-.48h-.47a1.05 1.05 0 1 1 0-2.1h.47v-.48c0-.58.47-1.06 1.05-1.06.57 0 1.04.48 1.04 1.06v.47h.47c.58 0 1.05.47 1.05 1.06zm-51.78 1.52c0 .58-.47 1.05-1.05 1.05h-.47v.47a1.05 1.05 0 0 1-2.1 0v-.47h-.46a1.05 1.05 0 1 1 0-2.1h.47v-.48c0-.59.47-1.06 1.04-1.06.58 0 1.05.47 1.05 1.06v.47h.47c.58 0 1.05.47 1.05 1.06zm44.72-11.1c0 6.18-5 30.72-12.62 30.72-2.7 0-5.16-2.78-7.52-8.49a1.5 1.5 0 0 0-2.76 0c-2.36 5.71-4.82 8.49-7.52 8.49-7.7 0-12.62-24.73-12.62-30.71 0-9.5 10.05-15.67 18.42-11.3a6.7 6.7 0 0 0 6.2 0c8.38-4.37 18.42 1.8 18.42 11.3zm-2.25 0c0-7.82-8.27-12.86-15.14-9.28a8.93 8.93 0 0 1-8.26 0c-6.88-3.58-15.14 1.47-15.14 9.29 0 7.02 5.45 28.44 10.37 28.44 1.6 0 3.58-2.58 5.44-7.09a3.74 3.74 0 0 1 6.92 0c1.86 4.5 3.84 7.1 5.44 7.1 4.92 0 10.37-21.46 10.37-28.45zm-3 0c0 2.03-.8 7.68-2.57 13.93a1.12 1.12 0 1 1-2.16-.62c1.72-6.04 2.49-11.41 2.49-13.3 0-.63.5-1.14 1.12-1.14.62 0 1.13.51 1.13 1.14zm-24.04-6.3c0 .63-.5 1.14-1.13 1.14a5.15 5.15 0 0 0-5.13 5.17c0 .62-.5 1.13-1.12 1.13-.62 0-1.13-.5-1.13-1.13 0-4.1 3.31-7.43 7.38-7.43.62 0 1.13.5 1.13 1.13z"/></defs><g><g transform="translate(-1151 -1660)"><use fill="#217dbe" xlink:href="#qqi3a"/></g></g></svg>