<svg xmlns="http://www.w3.org/2000/svg" xmlns:xlink="http://www.w3.org/1999/xlink" width="50" height="50" viewBox="0 0 50 50"><defs><path id="dpzka" d="M276.95 535.2c-.33.54-.4 1.18-.21 1.77l.84 2.62a4.06 4.06 0 0 1-1.8 4.75l-2.33 1.4c-.54.3-.9.84-1.01 1.46l-.46 2.7a4.05 4.05 0 0 1-3.81 3.38l-2.68.13c-.62.03-1.2.34-1.58.84l-1.63 2.15a4.1 4.1 0 0 1-4.97 1.22l-2.41-1.13a2.11 2.11 0 0 0-1.8 0l-2.42 1.13a4.1 4.1 0 0 1-4.96-1.23l-1.63-2.14c-.38-.5-.96-.8-1.58-.84l-2.68-.13a4.05 4.05 0 0 1-3.81-3.38l-.46-2.7a2.12 2.12 0 0 0-1-1.47l-2.35-1.39a4.06 4.06 0 0 1-1.8-4.75l.85-2.62c.19-.6.11-1.23-.21-1.76l-1.44-2.35c-1-1.62-.75-3.7.6-5.03l1.96-1.93c.44-.43.67-1.04.62-1.66l-.2-2.74a4.05 4.05 0 0 1 2.9-4.19l2.57-.78c.6-.18 1.09-.61 1.34-1.19l1.08-2.49a4.1 4.1 0 0 1 4.52-2.38l2.62.52c.61.12 1.25-.04 1.74-.43l2.08-1.69a4.1 4.1 0 0 1 5.12 0l2.08 1.69c.49.4 1.12.55 1.74.43l2.62-.52a4.1 4.1 0 0 1 4.52 2.38l1.08 2.5c.25.57.73 1 1.33 1.18l2.58.78a4.05 4.05 0 0 1 2.89 4.19l-.2 2.74c-.04.62.19 1.23.63 1.66l1.95 1.93a4.06 4.06 0 0 1 .61 5.03zm-.22-3.36c.52-.85.39-1.92-.32-2.62l-1.95-1.92c-.85-.84-1.29-2-1.2-3.2l.2-2.74c.06-1-.55-1.9-1.51-2.18l-2.58-.78a4.06 4.06 0 0 1-2.56-2.28l-1.08-2.5a2.13 2.13 0 0 0-2.35-1.23l-2.62.51a4.06 4.06 0 0 1-3.35-.82l-2.08-1.69a2.13 2.13 0 0 0-2.66 0l-2.09 1.69a4.06 4.06 0 0 1-3.34.82l-2.62-.51a2.13 2.13 0 0 0-2.35 1.24l-1.08 2.5a4.06 4.06 0 0 1-2.56 2.27l-2.58.78a2.1 2.1 0 0 0-1.5 2.18l.19 2.74a4.07 4.07 0 0 1-1.2 3.2l-1.95 1.92c-.71.7-.84 1.77-.32 2.62l1.44 2.34c.62 1.02.77 2.25.4 3.39l-.83 2.62c-.3.95.08 1.96.93 2.47l2.34 1.39a4.07 4.07 0 0 1 1.93 2.82l.46 2.7a2.1 2.1 0 0 0 1.99 1.76l2.67.13c1.2.06 2.31.65 3.04 1.6l1.63 2.15c.6.8 1.69 1.06 2.59.64l2.42-1.13a4.06 4.06 0 0 1 3.44 0l2.42 1.13c.9.42 1.98.15 2.58-.64l1.63-2.14a4.06 4.06 0 0 1 3.04-1.6l2.68-.14a2.1 2.1 0 0 0 1.98-1.76l.46-2.7c.2-1.18.91-2.2 1.94-2.82l2.34-1.39c.85-.5 1.24-1.52.93-2.47l-.84-2.62a4.07 4.07 0 0 1 .4-3.39zm-34.46-10.6h-.01a.97.97 0 1 1-1.38-1.38l.02-.02a.98.98 0 1 1 1.37 1.4zm28.82 18.99a.98.98 0 1 1-1.8-.77 16.56 16.56 0 0 0-3.55-18.22 16.57 16.57 0 0 0-20.21-2.54.98.98 0 1 1-1-1.68 18.52 18.52 0 0 1 27.7 12.56c.68 3.6.28 7.28-1.14 10.65zm-3.98 5.89l-.01.01a.97.97 0 0 1-1.38 0 .98.98 0 0 1 0-1.39l.02-.01a.98.98 0 1 1 1.37 1.39zm-3.64 2.83a18.48 18.48 0 0 1-22.59-2.84 18.56 18.56 0 0 1-3.97-20.37.98.98 0 1 1 1.8.77 16.56 16.56 0 0 0 3.55 18.22 16.59 16.59 0 0 0 20.21 2.54.98.98 0 1 1 1 1.68zm.68-21.92l-13.28 13.38c-.4.41-1.07.41-1.48 0l-5.56-5.6c-.4-.41-.4-1.08 0-1.5.41-.4 1.07-.4 1.48 0l4.82 4.86 12.54-12.63c.4-.4 1.07-.4 1.48 0 .4.42.4 1.08 0 1.5z"/></defs><g><g transform="translate(-229 -508)"><use fill="#1677bb" xlink:href="#dpzka"/></g></g></svg>