<svg xmlns="http://www.w3.org/2000/svg" xmlns:xlink="http://www.w3.org/1999/xlink" width="21" height="21" viewBox="0 0 21 21"><defs><path id="voa7a" d="M545.06 788.29c.63.39 1.1.9 1.44 1.52.33.62.5 1.4.5 2.33 0 2.12-.9 3.82-2.68 5.12-1.78 1.3-4.28 1.94-7.48 1.94h-.75c-.57 0-1.13.44-1.26.98l-.9 3.84c-.12.54-.69.98-1.25.98h-2.63c-.56 0-.92-.44-.8-.99l.15-.62h1.64c.57 0 1.13-.44 1.26-.99l.9-3.83c.12-.54.69-.98 1.25-.98h.75c3.2 0 5.7-.65 7.49-1.94 1.78-1.3 2.67-3 2.67-5.12 0-.93-.16-1.71-.5-2.34l.2.1zm-15.65 13.49h-2.63c-.57 0-.92-.45-.8-.99l3.7-15.8c.13-.55.7-.99 1.26-.99h5.48c1.18 0 2.2.08 3.09.24a6.6 6.6 0 0 1 2.28.82c.62.4 1.1.9 1.44 1.52.33.63.5 1.4.5 2.34 0 2.11-.9 3.82-2.68 5.11-1.78 1.3-4.28 1.95-7.48 1.95h-.75c-.57 0-1.13.44-1.26.98l-.9 3.83c-.12.54-.69.99-1.25.99zm4.2-9.18h.65c1.42 0 2.51-.28 3.3-.85a2.82 2.82 0 0 0 1.2-2.43c0-.7-.27-1.2-.77-1.54a4.17 4.17 0 0 0-2.28-.5h-.86c-.56 0-1.12.44-1.25.98l-.8 3.36c-.12.54.24.98.8.98z"/></defs><g><g transform="translate(-526 -784)"><use fill="#1677bb" xlink:href="#voa7a"/></g></g></svg>