<svg xmlns="http://www.w3.org/2000/svg" xmlns:xlink="http://www.w3.org/1999/xlink" width="67" height="45" viewBox="0 0 67 45"><defs><path id="p22sa" d="M775 2300v-29h41v29z"/><path id="p22sb" d="M830 2280.96v11.07c0 7.02-1.16 11.08-3.88 13.56-2.65 2.42-6.75 3.4-14.15 3.4h-30.96c-15.23 0-18.02-5.7-18.02-16.96v-11.07c0-5.8 0-10 2.35-12.85 2.4-2.92 6.95-4.11 15.67-4.11h30.96c8.53 0 13 1.12 15.42 3.86 2.43 2.76 2.6 6.98 2.6 13.1zm-22.83 5.23c0-.76-.45-1.47-1.16-1.82l-14.06-6.97a2.25 2.25 0 0 0-2.12.07 2.05 2.05 0 0 0-1.04 1.76v13.98c0 .72.4 1.39 1.04 1.76a2.23 2.23 0 0 0 2.12.07l14.06-7.01a2.05 2.05 0 0 0 1.16-1.84z"/></defs><g><g transform="translate(-763 -2264)"><use fill="#fff" xlink:href="#p22sa"/></g><g transform="translate(-763 -2264)"><use fill="#1677bb" xlink:href="#p22sb"/></g></g></svg>