<svg xmlns="http://www.w3.org/2000/svg" xmlns:xlink="http://www.w3.org/1999/xlink" width="27" height="29" viewBox="0 0 27 29"><defs><path id="tjx3a" d="M262 559.65c0 .66-.26 1.25-.69 1.7.43.46.69 1.05.69 1.7 0 1.18-.84 2.17-1.99 2.46.12.3.19.61.19.94 0 1.4-1.21 2.55-2.7 2.55h-7.54c-1.07 0-2.12-.16-3.13-.48l-3.1-.97a2.72 2.72 0 0 1-2.43 1.45h-5.4c-.5 0-.9-.38-.9-.85v-15.3c0-.46.4-.84.9-.84h5.4a2.7 2.7 0 0 1 2.51 1.61c2.26-.52 4.44-3.38 5.13-5.97l.49-1.85a.9.9 0 0 1 .87-.65h.9c1.98 0 3.6 1.53 3.6 3.4v.85c0 .85-.22 2.82-.74 4.3h5.24c1.49 0 2.7 1.15 2.7 2.56 0 .65-.26 1.24-.69 1.7.43.45.69 1.04.69 1.7zm-19.8-5.1c0-.46-.4-.84-.9-.84h-4.5v13.6h4.5c.5 0 .9-.4.9-.86zm14.4 3.4c0-.46.4-.84.9-.84h1.8c.5 0 .9-.39.9-.85 0-.47-.4-.85-.9-.85h-9c-.5 0-.9-.38-.9-.85s.4-.85.9-.85h1.84c.48-.98.86-3.17.86-4.3v-.86c0-.93-.8-1.7-1.8-1.7h-.2l-.32 1.21a12.17 12.17 0 0 1-2.64 4.79 7.31 7.31 0 0 1-4.04 2.48v10.5l3.4 1.08c.83.26 1.69.4 2.56.4h7.54c.5 0 .9-.4.9-.86 0-.47-.4-.85-.9-.85s-.9-.38-.9-.85.4-.85.9-.85h1.8c.5 0 .9-.38.9-.85s-.4-.85-.9-.85h-1.8c-.5 0-.9-.38-.9-.85s.4-.85.9-.85h1.8c.5 0 .9-.38.9-.85 0-.46-.4-.85-.9-.85h-1.8c-.5 0-.9-.38-.9-.85zm-17.1 5.95c.5 0 .9.38.9.85s-.4.85-.9.85-.9-.38-.9-.85.4-.85.9-.85zm13.5-23.05v1.76c0 .46-.4.85-.9.85s-.9-.39-.9-.85v-1.76c0-.47.4-.85.9-.85s.9.38.9.85zm-4.72 4.1a.94.94 0 0 1-1.27 0l-1.27-1.2a.82.82 0 0 1 0-1.2.94.94 0 0 1 1.27 0l1.27 1.2c.35.33.35.87 0 1.2zm10.18-1.2l-1.27 1.2a.94.94 0 0 1-1.27 0 .82.82 0 0 1 0-1.2l1.27-1.2a.94.94 0 0 1 1.27 0c.36.33.36.86 0 1.2z"/></defs><g><g transform="translate(-235 -540)"><use fill="#1677bb" xlink:href="#tjx3a"/></g></g></svg>