<svg xmlns="http://www.w3.org/2000/svg" xmlns:xlink="http://www.w3.org/1999/xlink" width="21" height="26" viewBox="0 0 21 26"><defs><path id="lipia" d="M1267 97.2a.75.75 0 0 1-.75.8h-19.5a.75.75 0 0 1-.55-.24.73.73 0 0 1-.2-.56l1.5-18.62a.75.75 0 0 1 .75-.67h3.75v-1.48a4.47 4.47 0 0 1 4.5-4.43c2.48 0 4.5 1.99 4.5 4.43v1.48h3.75c.39 0 .71.3.75.67zm-13.5-19.3h6v-1.47a2.98 2.98 0 0 0-3-2.95c-1.65 0-3 1.32-3 2.95zm11.93 18.62l-1.36-17.13H1261v1.68c.45.25.75.73.75 1.27 0 .82-.67 1.48-1.5 1.48s-1.5-.66-1.5-1.48c0-.55.3-1.02.75-1.27v-1.68h-6v1.68c.45.25.75.73.75 1.27 0 .82-.67 1.48-1.5 1.48s-1.5-.66-1.5-1.48c0-.54.3-1.02.75-1.27v-1.68h-3.07l-1.36 17.13z"/></defs><g><g transform="translate(-1246 -72)"><use fill="#587a93" xlink:href="#lipia"/></g></g></svg>