<svg xmlns="http://www.w3.org/2000/svg" xmlns:xlink="http://www.w3.org/1999/xlink" width="25" height="19" viewBox="0 0 25 19"><defs><path id="g99la" d="M278 1568.36c0 .88-.57 1.6-1.28 1.6l-22.42.04c-.34 0-.66-.17-.9-.47-.25-.3-.38-.7-.38-1.13l-.02-15.76c0-.43.13-.83.37-1.13.25-.3.57-.47.9-.47l22.43-.04c.7 0 1.28.72 1.28 1.6zm-22.31-15.72l9.81 8.48 9.8-8.52zm13.84 8.96c.22-.35.62-.4.9-.14l6.29 6.1-.02-14.23-10.83 9.42a.56.56 0 0 1-.37.15.55.55 0 0 1-.36-.15l-10.86-9.38.02 14.2 6.3-6.1c.27-.28.67-.22.89.13.22.35.17.86-.11 1.13l-5.85 5.67 19.92-.04-5.8-5.63c-.29-.27-.34-.78-.12-1.13z"/></defs><g><g transform="translate(-253 -1551)"><use fill="#1677bb" xlink:href="#g99la"/></g></g></svg>