<svg xmlns="http://www.w3.org/2000/svg" xmlns:xlink="http://www.w3.org/1999/xlink" width="51" height="36" viewBox="0 0 51 36"><defs><path id="tt0wa" d="M276.76 1391.34a1 1 0 0 1-.09 1.41l-16.47 14.45a3.18 3.18 0 0 1-4.24 0l-16.48-14.45a1 1 0 0 1 .33-1.7 1 1 0 0 1 .98.2l16.48 14.44c.46.41 1.15.41 1.62 0l16.47-14.44a1 1 0 0 1 1.4.1zm-24.97 14.96a1 1 0 0 1 .02 1.4l-10.97 11a1 1 0 0 1-1.68-.43 1 1 0 0 1 .27-.98l10.97-11a1 1 0 0 1 1.4.01zm24.93 10.9a1 1 0 0 1-.4 1.74 1 1 0 0 1-1-.31l-10.96-10.92a1 1 0 1 1 1.4-1.42zM281 1399v21.45c0 1.4-1.12 2.54-2.51 2.55h-40.82a2.53 2.53 0 0 1-2.52-2.55V1415a1 1 0 1 1 2 0v5.45c-.01.3.22.54.52.55h40.82c.3 0 .53-.25.52-.55v-30.9c0-.3-.23-.54-.52-.55h-40.82c-.3 0-.53.25-.52.55v7.45a1 1 0 1 1-2 0v-7.45c0-1.4 1.12-2.54 2.52-2.55h40.82a2.53 2.53 0 0 1 2.51 2.55v7.45m-45.85 15a1 1 0 0 1 0-2h4.99a1 1 0 0 1 0 2zm-4.15-10a1 1 0 0 1 0-2h11.99a1 1 0 0 1 0 2zm14.15 5H232a1 1 0 0 1 0-2h13.16a1 1 0 0 1 0 2z"/></defs><g><g transform="translate(-230 -1387)"><use fill="#237ebf" xlink:href="#tt0wa"/></g></g></svg>