<svg xmlns="http://www.w3.org/2000/svg" xmlns:xlink="http://www.w3.org/1999/xlink" width="70" height="69" viewBox="0 0 70 69"><defs><path id="7egna" d="M401.53 1879.52a.9.9 0 0 1-1.26-.05.99.99 0 0 0-.72-.32c-.55-.01-1 .42-1.01.96 0 .48-.4.87-.9.87a.89.89 0 0 1-.89-.9 2.77 2.77 0 0 1 2.83-2.7 2.8 2.8 0 0 1 1.96.85c.1.18.18.37.27.55a.88.88 0 0 1-.28.74zm1.74 2.36a.9.9 0 0 1-1.15.52.88.88 0 0 1-.52-1.14c.18-.5.51-.9.92-1.18.3.51.62 1.01.95 1.5a.75.75 0 0 0-.2.3zm3.27 4.62h-1.2a.89.89 0 0 1 0-1.77h.64c.43.46.87.9 1.33 1.33a.9.9 0 0 1-.77.44zm32.16 15.4c-.26.37-.64.62-1.09.7l-4.73.86 2.52.57a1.68 1.68 0 0 1 1.3 1.87l-.2 1.29a1.68 1.68 0 0 1-1.68 1.42c-.1 0-.2 0-.3-.02l-7.14-1.27a3.98 3.98 0 0 1-.9 3.22 4.11 4.11 0 0 1-3.15 1.45l-35.76.01c-5.28 0-9.57-3.93-9.57-8.76a8.39 8.39 0 0 1 2.9-6.27v-25.77a4.2 4.2 0 0 1 4.13-4.17v-1.87a1.48 1.48 0 0 1-1.23-1.45v-4.24c0-.81.66-1.47 1.49-1.47h7.26c.82 0 1.5.66 1.5 1.47v4.24c0 .73-.54 1.33-1.24 1.45v1.87a4.2 4.2 0 0 1 4.13 4.17v3.3a4.54 4.54 0 0 1 3.21.18c.21.68.45 1.35.71 2a.9.9 0 0 1-.92-.09 2.72 2.72 0 0 0-2.1-.5 2.7 2.7 0 0 0-2.1 3.56c.16.43-.04.9-.46 1.1a2.69 2.69 0 0 0-.91 4.2 6.7 6.7 0 0 1 .41-1.56 1.06 1.06 0 0 1 .6-.6 6.87 6.87 0 0 1 6.36.68c.23-.55.77-.93 1.4-.93h1.01c.46.6.94 1.2 1.44 1.76h-2.17a6.92 6.92 0 0 0 1.15 3.57h1.82c.04-.1.1-.18.17-.26l.84-.83a.9.9 0 0 1 .45-.24c.35.31.71.61 1.08.9 0 .15-.05.3-.13.43h.69c.86.64 1.76 1.23 2.7 1.76h-22.43c.01.95.1 1.89.23 2.8a.9.9 0 0 1 .56-.18c.49 0 .89.4.89.88v.53a9.17 9.17 0 0 1 4.98.25c1.2.47 1.54 1.14 1.61 1.6a8.98 8.98 0 0 1 4.75 5.51l2.42-.91a.9.9 0 0 1 1.16.51.88.88 0 0 1-.52 1.14l-5.21 1.96.32 1.7a.88.88 0 0 1-.88 1.05.9.9 0 0 1-.88-.72l-.26-1.4-3.51 1.32a2.27 2.27 0 0 0-1.45 2.54l.03.16a2.3 2.3 0 0 0 2.27 1.86h10.44l-.47-2.55a.9.9 0 1 1 1.76-.32l.53 2.87h7.15l-.33-1.8a.88.88 0 0 1 .71-1.02.9.9 0 0 1 1.04.7l.4 2.12h3.08l-.53-2.81a.88.88 0 0 1 .72-1.03.9.9 0 0 1 1.04.7l.58 3.13h.94c.69 0 1.34-.3 1.78-.82.44-.52.62-1.2.5-1.86l-1.81-9.64a2.27 2.27 0 0 0-1.14-1.57 2.35 2.35 0 0 0-1.96-.15l-6.97 2.62.47 2.49a.88.88 0 0 1-.88 1.04.9.9 0 0 1-.88-.72l-.4-2.18-1.32.5a.9.9 0 0 1-1.15-.51.88.88 0 0 1 .52-1.14l9.97-3.75a4.15 4.15 0 0 1 3.47.26 4.04 4.04 0 0 1 1.93 2.4l4.84-2.82c.17-.66.3-1.33.41-2 .63-.14 1.25-.3 1.87-.5-.06.5-.13.98-.22 1.46a1.7 1.7 0 0 1 1.7.84l.65 1.13a1.66 1.66 0 0 1-.54 2.21l-2.14 1.42 4.73-.86a1.69 1.69 0 0 1 1.97 1.34l.24 1.24c.08.44-.01.88-.27 1.25zm-40.3-15.52a.9.9 0 0 1 1.27 0l1.5 1.49h1.35c-.3-.61-.53-1.26-.68-1.94a5.08 5.08 0 0 0-5.5-1.6 4.95 4.95 0 0 0 .16 3.54h2.15l-.24-.25a.88.88 0 0 1 0-1.24zm-3.97.8a4.48 4.48 0 0 1-1.63-1.33 2.9 2.9 0 0 0-1.38 2.02h3.18a6.77 6.77 0 0 1-.17-.68zm-8.85-23.76h6.67v-3.65h-6.67zm1.24 1.77v1.84h4.2v-1.84zm-4.14 19.98h8.17c.34-.36.74-.68 1.19-.92l-.07-.3a4.44 4.44 0 0 1 1.9-4.43v-.01a4.42 4.42 0 0 1 1.29-3.95v-.78h-1.67c-.5 0-.9-.4-.9-.88 0-.49.4-.89.9-.89h1.67v-1.81c0-1.32-1.1-2.4-2.43-2.4h-7.63a2.42 2.42 0 0 0-2.42 2.4v1.81h5.8c.5 0 .9.4.9.89s-.4.88-.9.88h-5.8zm0 10.54l.38-.2c.07-.46.4-1.13 1.61-1.6a8.23 8.23 0 0 1 3.69-.44 22.08 22.08 0 0 1-.39-4.13c0-.81.67-1.47 1.5-1.47h.14c.04-.32.1-.63.2-.93h-7.13zm11.02 1.14c.1-.34.4-.59.75-.63a4.3 4.3 0 0 0 1.68-.48 5.14 5.14 0 0 0-2.61-.54c-1.22 0-2.11.25-2.54.5a.9.9 0 0 1-.87-.01 5.62 5.62 0 0 0-2.54-.49c-1.47 0-2.29.34-2.61.54.26.16.8.38 1.68.48a.88.88 0 1 1 .45 1.57c-.32.25-.51.47-.63.62h.04c.5 0 1.4-.2 2.44-.77a6.4 6.4 0 0 0 1.03-.68.9.9 0 0 1 1.15 0c.29.24.64.47 1.03.69a5.6 5.6 0 0 0 2.45.76h.03a3.36 3.36 0 0 0-.63-.63.88.88 0 0 1-.3-.93zm1.08 7.17l6.32-2.37a7.16 7.16 0 0 0-3.83-4.54c-.27.2-.62.38-1.03.52.17.27.28.56.3.87.04.4-.09.8-.35 1.09-.35.39-.89.59-1.6.59-.94 0-2.18-.37-3.3-.99-.27-.14-.51-.3-.74-.45-.24.16-.48.3-.74.45a7.44 7.44 0 0 1-3.31.99c-.71 0-1.25-.2-1.6-.59-.26-.3-.39-.68-.35-1.09.02-.3.13-.6.3-.87-.41-.14-.76-.32-1.03-.52a6.93 6.93 0 0 0-4.03 6.13c0 3.86 3.49 7 7.78 7h5.31a4 4 0 0 1-.64-1.55l-.03-.16a4.03 4.03 0 0 1 2.57-4.5zm42.42-3.14l-.2-1.06-8.9 1.62a.9.9 0 0 1-1-.54.88.88 0 0 1 .34-1.07l5.66-3.74-.55-.98-6.72 3.92 1.2 6.43 7.72 1.37.16-1.1-6.65-1.5a.88.88 0 0 1-.7-.89c.01-.42.32-.77.74-.85zm10.8-35.38c0 12.4-10.1 22.5-22.5 22.5s-22.5-10.1-22.5-22.5 10.1-22.5 22.5-22.5 22.5 10.1 22.5 22.5zm-1.73 0a20.8 20.8 0 0 0-20.77-20.77 20.8 20.8 0 0 0-20.77 20.77 20.8 20.8 0 0 0 20.77 20.77 20.8 20.8 0 0 0 20.77-20.77zm-8.94-9.3c.35.32.38.86.07 1.22L423.55 1873a.86.86 0 0 1-1.19.1l-8.65-6.92a.87.87 0 0 1 1.08-1.36l8.01 6.41 13.3-14.96a.86.86 0 0 1 1.23-.07z"/></defs><g><g transform="translate(-378 -1843)"><use fill="#217dbe" xlink:href="#7egna"/></g></g></svg>