<svg xmlns="http://www.w3.org/2000/svg" xmlns:xlink="http://www.w3.org/1999/xlink" width="40" height="40" viewBox="0 0 40 40"><defs><path id="m9iia" d="M258.75 289.83l2.3 4.59s3.76-9.32 9.66-12.42c-.14 2.22-.72 4.14.29 6.5-2.6.6-7.92 7.25-9.65 10.5-2.45-3.1-5.33-5.47-7.35-6.2zm-1.85 14.42a19.64 19.64 0 0 1 .7-39.25c10.81 0 19.6 8.8 19.6 19.63h-1.4a18.23 18.23 0 0 0-18.2-18.23 18.23 18.23 0 0 0-.7 36.45"/></defs><g><g transform="translate(-238 -265)"><use fill="#1677bb" xlink:href="#m9iia"/></g></g></svg>