<svg xmlns="http://www.w3.org/2000/svg" xmlns:xlink="http://www.w3.org/1999/xlink" width="62" height="71" viewBox="0 0 62 71"><defs><path id="mszia" d="M1195.42 1848.37v31.18a1.01 1.01 0 1 1-2.02 0v-29.97a28.26 28.26 0 0 1-19.38-3.89l-.8-.5-.82.5a28.28 28.28 0 0 1-19.38 3.9v29.96c0 3.65.96 7.23 2.8 10.38a19.64 19.64 0 0 0 9.08 8.15l8.31 3.66 8.31-3.67c.45-.2.88-.4 1.31-.63a1 1 0 0 1 1.37.42c.26.5.07 1.1-.42 1.37-.47.25-.96.48-1.45.7l-8.72 3.84a1 1 0 0 1-.8 0l-8.72-3.84c-4.2-1.85-7.7-5-10.02-8.98a22.64 22.64 0 0 1-3.07-11.4v-31.18c0-.07 0-.14.02-.2a1 1 0 0 1 1.2-.8 26.27 26.27 0 0 0 19.13-3.4l1.33-.82a1 1 0 0 1 1.06 0l1.33.82a26.26 26.26 0 0 0 19.34 3.39c.56 0 1 .45 1 1.01zm-22.7 3.61a24 24 0 0 1-15.66 3.08v23.03c0 2.8.78 5.55 2.24 7.93 1.7 2.8 4.26 5 7.28 6.26a1.02 1.02 0 0 1-.78 1.87 17.55 17.55 0 0 1-8.23-7.06 17.25 17.25 0 0 1-2.53-9v-24.23c0-.07 0-.14.02-.2a1 1 0 0 1 1.2-.8 22.02 22.02 0 0 0 15.51-2.67 1 1 0 0 1 1.37.42c.26.5.07 1.11-.42 1.37zm16.35 15.06l-17.16 17.25a1 1 0 0 1-1.43 0l-8.08-8.12c-.4-.4-.4-1.04 0-1.43l4.04-4.06a1 1 0 0 1 1.43 0l3.32 3.34 12.41-12.47a1 1 0 0 1 1.43 0l4.04 4.06c.4.4.4 1.04 0 1.43zm-2.14-.71l-2.62-2.63-12.4 12.47a1 1 0 0 1-1.42 0l-3.34-3.34-2.6 2.62 6.64 6.69zm23.75 32.87a10.86 10.86 0 0 0-1.94 4.25 28.3 28.3 0 0 0-.37 2.21c-.3 2.38-.76 4.28-1.34 5.67-.7 1.66-1.6 2.55-2.67 2.66l-.18.01c-1.07 0-1.95-.95-2.64-2.84-.51-1.39-.91-3.26-1.13-5.25a5.68 5.68 0 0 0-.83-2.62.56.56 0 0 0-.46-.23c-.09 0-.3.02-.46.23-.42.6-.7 1.5-.83 2.62-.22 2-.62 3.86-1.13 5.25-.69 1.89-1.57 2.84-2.63 2.84h-.19c-1.07-.12-1.97-1.01-2.67-2.67a22.53 22.53 0 0 1-1.34-5.67c-.1-.8-.22-1.54-.37-2.21a10.84 10.84 0 0 0-1.93-4.25 11.23 11.23 0 0 1-1.84-10.06c.81-2.53 2.53-4.38 4.73-5.09 4.06-1.3 7.39.37 8.66 1.17 1.27-.8 4.6-2.47 8.66-1.17 2.2.7 3.92 2.56 4.73 5.08 1.06 3.33.38 7.09-1.83 10.07zm.14-9.52c-.63-1.97-1.94-3.4-3.58-3.94a8.2 8.2 0 0 0-5.33.11 8.65 8.65 0 0 0-2.24 1.15l-.55.43-.55-.43s-.87-.67-2.24-1.15a8.2 8.2 0 0 0-5.32-.1c-1.65.52-2.96 1.96-3.59 3.93a9.45 9.45 0 0 0 1.57 8.46 12.6 12.6 0 0 1 2.25 4.94c.15.72.28 1.51.4 2.35.61 4.84 1.77 6.7 2.4 6.79.14-.05.6-.49 1.1-1.94.4-1.24.74-2.86.93-4.57a7.3 7.3 0 0 1 1.15-3.45 2.34 2.34 0 0 1 3.8 0c.6.86 1 2.01 1.15 3.45.2 1.71.52 3.33.94 4.57.5 1.45.95 1.9 1.08 1.94.64-.08 1.8-1.95 2.42-6.79.1-.84.24-1.63.4-2.35a12.63 12.63 0 0 1 2.24-4.94 9.45 9.45 0 0 0 1.57-8.46z"/></defs><g><g transform="translate(-1151 -1843)"><use fill="#217dbe" xlink:href="#mszia"/></g></g></svg>