<svg xmlns="http://www.w3.org/2000/svg" xmlns:xlink="http://www.w3.org/1999/xlink" width="182" height="26" viewBox="0 0 182 26"><defs><path id="km9oa" d="M821.75 4518.1a.9.9 0 0 1-.36.78c-.25.18-.59.27-1.03.27h-.2c-.18 0-.28-.14-.25-.32l.25-1.07a.41.41 0 0 1 .39-.32h.26c.31 0 .55.05.7.16.16.1.24.27.24.5zm4.16 2.09l-.17.7-.12.17-.32.17a1.1 1.1 0 0 1-.89 0l-.16-.3c0-.18.04-.3.12-.41l.35-.24c.14-.05.32-.1.53-.13l.6-.06zm26.38-12.15v23.92c0 .57-.45 1.03-1.01 1.03h-37.16c-.56 0-1.01-.46-1.01-1.03v-23.92c0-.57.45-1.03 1-1.03h37.17c.56 0 1 .46 1 1.03zm-29 9.92c0-.3-.04-.55-.15-.75-.1-.2-.25-.36-.45-.48-.2-.13-.43-.22-.7-.27-.28-.05-.6-.07-.96-.08h-1.7a.43.43 0 0 0-.39.32l-1.14 5.09c-.04.17.07.31.25.31h.8c.19 0 .36-.14.4-.31l.28-1.24a.42.42 0 0 1 .39-.31h.23c1 0 1.76-.21 2.31-.63.56-.41.83-.97.83-1.65zm4.22.8a.88.88 0 0 0-.46-.82c-.3-.18-.79-.26-1.45-.26-.33 0-.65.02-.98.07l-.42.08c-.3.07-.35.39-.35.39l-.1.42c-.06.26.09.25.15.23.14-.04.21-.08.49-.15.26-.06.54-.1.76-.1.32 0 .57.03.74.1.16.08.24.2.24.38l-.01.12-.12.07c-.46.03-.8.08-1.2.14-.4.05-.74.15-1.03.29-.3.14-.53.32-.7.56-.15.24-.23.53-.23.87 0 .32.12.58.33.79.22.2.51.3.86.3.22 0 .39-.02.5-.05l.4-.14.33-.19.31-.2-.03.13c-.03.17.06.3.22.32h.76a.42.42 0 0 0 .36-.31l.59-2.62.03-.22zm1.8 5.05l3.24-5.6s.3-.48.02-.47h-.97c-.18 0-.4.14-.51.31l-1.28 2.25h-.13l-.37-2.23c-.04-.18-.22-.33-.44-.33h-.73c-.17 0-.28.15-.24.32 0 0 .55 3.22.66 3.98.06.41 0 .49 0 .49l-.72 1.28c-.1.18-.05.32.12.32h.84c.18 0 .4-.14.51-.32zm8.73-5.83c0-.3-.06-.55-.16-.75-.1-.2-.25-.36-.45-.49-.2-.12-.43-.21-.7-.26a5.52 5.52 0 0 0-.96-.08h-1.7a.43.43 0 0 0-.38.32l-1.14 5.09c-.05.17.07.31.24.31h.81c.18 0 .35-.14.4-.31l.27-1.24a.42.42 0 0 1 .39-.31h.23c1 0 1.77-.21 2.32-.63.55-.42.83-.97.83-1.65zm4.22.79a.88.88 0 0 0-.46-.82c-.31-.18-.8-.27-1.45-.27a6 6 0 0 0-.98.08c-.25.04-.27.04-.42.08-.31.06-.36.38-.36.38l-.1.42c-.05.27.1.25.16.23.14-.04.21-.08.48-.14.27-.06.54-.11.77-.1.32 0 .57.03.73.1.17.07.25.2.25.38l-.01.11-.12.08c-.47.03-.8.07-1.2.13-.4.06-.74.16-1.03.29-.3.14-.54.33-.7.56-.15.24-.23.53-.23.87 0 .32.11.59.33.79.22.2.5.3.86.3.21 0 .38-.02.5-.05l.4-.13.33-.2.3-.2h.01l-.03.14c-.04.16.06.3.22.31h.76a.42.42 0 0 0 .35-.31l.6-2.62.02-.21zm2.58-2.01c.04-.17-.07-.32-.24-.32h-.73c-.15 0-.28.12-.35.26l-.04.06-.04.17-1.01 4.73-.03.14c-.04.16.06.28.2.3l.01.02h.76c.15 0 .28-.12.35-.26l.04-.06 1.09-5.04zm1.45-.66H846v-.23h-.13v.23h-.1v.12h.1v.43l.06.2.19.08.08-.01.08-.02v-.12h-.01l-.05.02H846.08l-.04-.05-.02-.07V4516.22h.27zm1.31.28l-.06-.22-.2-.08-.13.03-.15.1-.08-.1-.14-.03-.13.03-.13.08v-.09h-.13v.8h.13v-.6l.11-.06.11-.03.09.01.04.05.02.08v.56h.14V4516.3l.11-.07.11-.03.09.01.04.05.02.08.01.1v.46h.13v-.53zm-6.95 3.81c0 .06-.11.5-.16.7l-.13.18-.32.16a1.11 1.11 0 0 1-.88 0l-.16-.3c0-.17.04-.3.12-.4.08-.1.2-.19.35-.25.14-.05.32-.1.53-.12l.6-.07zm-4.15-2.08c0 .34-.13.6-.37.79a1.7 1.7 0 0 1-1.02.27h-.2c-.18 0-.3-.14-.26-.32l.25-1.07a.42.42 0 0 1 .39-.32h.26c.31 0 .55.05.7.16.17.1.24.27.25.5zm62.65-10.07v23.92c0 .57-.46 1.03-1.01 1.03h-37.16c-.56 0-1.01-.46-1.01-1.03v-23.92c0-.57.45-1.03 1-1.03h37.17c.55 0 1 .46 1 1.03zm-28.98 11.21h.78c.24 0 .46-.14.56-.37l.12-.27v.02c0 .34.27.62.61.62h.92a.6.6 0 0 0 .33-.1c.1.06.2.1.33.1h2.97c.12 0 .22-.04.3-.1.1.06.2.1.32.1h.89c.34 0 .61-.28.61-.63v-.75h.51v.76c.01.34.29.62.62.62h.9c.1 0 .2-.03.28-.07a.6.6 0 0 0 .28.07h.9c.3 0 .54-.22.6-.5.5.43 1.21.5 1.6.5h1.05c.25 0 .47-.15.57-.39l.18-.46h1.02l.19.47c.1.23.32.38.57.38h1.8c.35 0 .62-.28.62-.63v-.6l.55.93c.11.19.31.3.53.3h1.26c.34 0 .61-.28.61-.63v-3.8a.62.62 0 0 0-.61-.64h-.91a.62.62 0 0 0-.62.63v.4l-.42-.72a.61.61 0 0 0-.53-.3h-1.35a.62.62 0 0 0-.62.62v.54l-.32-.78a.62.62 0 0 0-.57-.38h-1.33a.6.6 0 0 0-.37.12.6.6 0 0 0-.37-.12h-.86a2.4 2.4 0 0 0-1.67.53.61.61 0 0 0-.6-.53h-.9a.61.61 0 0 0-.55.35l-.11-.09a2.56 2.56 0 0 0-1.39-.26h-2.04a.59.59 0 0 0-.31.1.58.58 0 0 0-.3-.1h-2.98a.59.59 0 0 0-.33.1.59.59 0 0 0-.33-.1h-1.49a.61.61 0 0 0-.56.38l-.53 1.27-.58-1.29a.62.62 0 0 0-.56-.36h-1.45a.62.62 0 0 0-.62.62v.55l-.33-.8a.62.62 0 0 0-.57-.38h-1.32a.62.62 0 0 0-.56.39l-1.6 3.8c-.08.2-.06.42.06.6.11.18.3.28.5.28h.98c.24 0 .47-.15.56-.38l.19-.47h1.03l.19.46c.1.24.32.4.57.4h1.8c.34 0 .62-.29.62-.64v-.01l.12.27c.1.23.31.37.56.37zm26 4.73c0-.53-.14-.93-.44-1.25l-.02-.02c.17-.11.28-.3.28-.53v-.8a.62.62 0 0 0-.62-.64h-1.78c-.55 0-.97.17-1.28.42a.61.61 0 0 0-.57-.42h-1.78c-.5 0-.88.13-1.17.33a.6.6 0 0 0-.53-.33h-2.97a.6.6 0 0 0-.55.35l-.11-.1a2.71 2.71 0 0 0-1.36-.25h-2.06a.6.6 0 0 0-.54.35 2.4 2.4 0 0 0-1.38-.35h-2.84a.6.6 0 0 0-.45.2l-.67.75-.65-.74a.6.6 0 0 0-.46-.2h-3.57a.62.62 0 0 0-.62.62v3.81c0 .35.28.63.62.63h3.52c.17 0 .33-.07.45-.2l.68-.75.64.74a.6.6 0 0 0 .46.21h1.73c.34 0 .62-.28.62-.63v-.65h.5c.6 0 1.03-.12 1.35-.32v.97c0 .35.27.63.61.63h.9c.33 0 .6-.28.6-.63v-.76h.53v.76c0 .35.27.63.61.63h.9a.6.6 0 0 0 .27-.07c.08.04.17.07.27.07h2.97c.1 0 .18-.03.26-.07a.6.6 0 0 0 .27.07h1.73c.56 0 1-.14 1.34-.38.1.22.31.38.57.38h1.73c1.26 0 2.01-.68 2.01-1.83zm-15.38-6.8c.13.19.15.36.15.7v.74h-.9v-.48c0-.23.02-.55-.14-.74-.13-.13-.33-.16-.65-.16h-.95v1.38h-.9v-3.8h2.05c.46 0 .8 0 1.08.18.28.17.45.42.45.84 0 .6-.4.92-.63 1.02.2.07.36.2.44.32zM880 4516c0-.16-.07-.28-.19-.33a.9.9 0 0 0-.42-.07h-1.1v.84h1.09c.17 0 .31 0 .44-.07.11-.07.18-.2.18-.37zm1.5-1.2h.9v3.82h-.9zm11.44 0v3.82h-1.26l-1.7-2.86v2.86h-1.8l-.35-.85h-1.85l-.33.85h-1.04c-.44 0-.98-.1-1.3-.43-.3-.32-.47-.76-.47-1.45 0-.57.1-1.08.48-1.5.29-.3.74-.43 1.35-.43h.86v.81h-.84c-.33 0-.51.05-.69.23-.15.16-.25.46-.25.86 0 .4.07.7.24.9.14.15.39.2.62.2h.4l1.26-3h1.33l1.5 3.6v-3.6h1.36l1.57 2.65v-2.65zm-5.41 2.17l-.62-1.52-.6 1.52zm-2.54-.72l-.38.92a.7.7 0 0 1-.18-.02.99.99 0 0 1-.07-.44c0-.26.06-.4.07-.41.03-.03.05-.05.26-.05zm1.18 5.9v.7h2.04v.77h-2.04v.76h2.09v.8h-2.97v-3.82h2.97v.79zm-5.38.47c0 1.06-.77 1.28-1.55 1.28h-1.1v1.27h-1.74l-1.1-1.26-1.13 1.26h-3.52v-3.8h3.57l1.1 1.24 1.13-1.25h2.84c.71 0 1.5.2 1.5 1.26zm-6.05.64l-.98-1.1h-2.23v.68h1.96v.78h-1.96v.76h2.19zm2.5-1.49l-1.36 1.5 1.37 1.56zm2.6.85c0-.34-.22-.47-.55-.47h-1.16v.97h1.15c.35 0 .56-.17.56-.5zm4.76 1.1c.13.19.14.36.15.7v.75h-.9v-.48c0-.22.02-.56-.14-.74-.13-.14-.33-.17-.65-.17h-.95v1.4h-.9v-3.82h2.06c.45 0 .77.02 1.07.18.28.17.46.41.46.85 0 .6-.4.92-.64 1.01.2.07.36.21.44.32zm-.79-1.16c0-.16-.07-.28-.18-.34-.11-.07-.27-.07-.43-.07h-1.1v.86h1.09c.17 0 .32-.01.44-.08.11-.07.18-.2.18-.37zm8.11 1.4c0 .83-.5 1.21-1.4 1.21h-1.73v-.82h1.73c.17 0 .29-.02.36-.1.06-.05.1-.14.1-.24 0-.11-.04-.2-.1-.25-.07-.06-.16-.09-.32-.09-.83-.02-1.87.03-1.87-1.18 0-.55.34-1.13 1.27-1.13h1.78v.81h-1.63c-.16 0-.27 0-.36.07-.1.06-.13.15-.13.28 0 .14.08.24.2.28.09.03.19.04.34.04l.48.02c.48 0 .81.1 1.02.3.17.18.26.42.26.8zm-18.76-9.16v3.81h-.92v-2.98l-1.29 2.98h-.78l-1.3-2.98v2.98h-1.8l-.35-.85h-1.85l-.35.85h-.96l1.6-3.8h1.31l1.52 3.6v-3.6h1.45l1.16 2.58 1.07-2.59zm-6.76 2.17l-.6-1.52-.61 1.52zm8.3-1.37v.68h2.04v.78h-2.03v.77h2.08v.78h-2.97v-3.8h2.97v.79zm20.86 8.37c0 .82-.5 1.2-1.4 1.2h-1.73v-.82h1.72c.17 0 .3-.02.37-.1.06-.05.1-.14.1-.24 0-.11-.05-.2-.1-.25-.08-.06-.17-.09-.32-.09-.84-.02-1.88.03-1.88-1.18 0-.55.34-1.13 1.27-1.13h1.79v.81h-1.63c-.17 0-.27 0-.36.07-.1.06-.14.15-.14.28 0 .14.09.24.2.28.1.03.2.04.34.04l.48.02c.49 0 .82.1 1.02.3.18.18.27.42.27.8zm-165.66-4.38l-.42 3.01h-.94l.04-.41c-.02 0-.35.5-1.1.5-.4 0-1.04-.22-1.04-1.18 0-1.22.98-1.63 1.9-1.63l.46.03s.04-.07.04-.28c0-.33-.3-.37-.7-.37-.7 0-1.16.19-1.16.19l.16-.94s.56-.25 1.3-.25c.37 0 1.46.05 1.46 1.33zm-1.24 1.13c-.03 0-.05-.02-.23-.02-.79 0-.94.36-.94.66 0 .15.08.41.41.41.65 0 .78-.86.76-1.05zm2.59-1.09c0 .55 1.27.28 1.27 1.64 0 1.46-1.37 1.4-1.61 1.4-.9 0-1.18-.13-1.2-.14l.14-.96s.45.17.95.17c.29 0 .66-.03.66-.38 0-.53-1.34-.4-1.34-1.66 0-1.1.8-1.43 1.6-1.43.6 0 .98.09.98.09l-.13.97s-.58-.05-.73-.05c-.38 0-.6.08-.6.35zm2.54 1.67c-.02.15.02.35.39.35.1 0 .2-.03.28-.03l-.14.93c-.1.03-.41.14-.8.15-.5 0-.85-.29-.85-.93 0-.44.6-4.02.63-4.04h1.07l-.11.64h.53l-.13 1.03h-.57zm5.57-6.78h-3.41c.22-.37.46-.75.72-1.1h1.9c.29.35.55.72.79 1.1zm14.16 11.36h-.07l-.03-.05a.33.33 0 0 0-.06-.09h-.07v.14h-.06v-.35h.21l.04.04a.1.1 0 0 1 0 .12.11.11 0 0 1-.08.03l.03.02.05.07zm-.1-.21a.05.05 0 0 0 .02-.04l-.01-.03-.02-.02h-.13v.1h.07l.07-.01zm-13.05-8.97h-5.56l.54-1.1h4.59c.16.36.3.73.43 1.1zm-13.54.7l-.85 5.2h-1.1l.62-3.92-1.38 3.93h-.74l-.1-3.93-.64 3.93h-1.04l.86-5.22h1.56l.06 3.2 1.05-3.2zm20.43 2.19l-.43 3.01h-.94l.04-.41c-.02 0-.35.5-1.1.5-.4 0-1.03-.22-1.03-1.18 0-1.22.97-1.63 1.9-1.63l.45.03s.04-.07.04-.28c0-.33-.3-.37-.69-.37-.7 0-1.17.19-1.17.19l.16-.94s.56-.25 1.3-.25c.38 0 1.47.05 1.47 1.33zm-1.24 1.13c-.03 0-.05-.02-.24-.02-.78 0-.94.36-.94.66 0 .15.09.41.42.41.64 0 .78-.86.76-1.05zm7.54 1.57c0 .06-.02.12-.05.17a.32.32 0 0 1-.28.17.33.33 0 0 1-.28-.17.34.34 0 0 1 .12-.45c.06-.03.1-.05.16-.05s.11.02.16.05c.05.02.1.06.12.12.03.05.05.1.05.16zm-.05 0a.3.3 0 0 0-.04-.13.26.26 0 0 0-.37-.1.26.26 0 0 0-.1.1.28.28 0 0 0 0 .27c.02.05.06.08.1.1.04.03.09.04.13.04.05 0 .1-.01.14-.03a.26.26 0 0 0 .1-.1.28.28 0 0 0 .04-.15zm-.12.19h-.07l-.03-.06a.35.35 0 0 0-.06-.08.08.08 0 0 0-.05-.01h-.03v.15h-.06v-.36h.12l.1.01a.1.1 0 0 1 .04.04.1.1 0 0 1 .01.05.1.1 0 0 1-.03.07.1.1 0 0 1-.07.03c.01 0 .02 0 .03.02.02.01.03.03.05.07zm-.1-.22a.05.05 0 0 0 .01-.04v-.03l-.03-.02a.2.2 0 0 0-.06 0h-.06v.1h.07l.07-.01zm-3.66-3.93c-.14.3-.27.57-.4 1.27-.74-.27-.8 1.2-1.11 3.02h-1.1l.67-4.25h1l-.1.62s.35-.67.83-.67l.21.01zm3.63-.93l-.82 5.2h-1.04l.05-.39s-.36.46-1 .46c-.9 0-1.33-.88-1.33-1.77 0-1.4.82-2.6 1.8-2.6.63 0 1.03.56 1.03.56l.23-1.46zm-1.57 2.86c0-.64-.2-.91-.59-.91-.47 0-.84.56-.84 1.4 0 .53.18.86.57.86.58 0 .86-.78.86-1.35zm5.48-12.23v23.92c0 .57-.45 1.03-1 1.03H719c-.56 0-1-.46-1-1.03v-23.92c0-.57.44-1.03 1-1.03h37.16c.56 0 1.01.46 1.01 1.03zm-3.48 17.67a.35.35 0 0 0-.04-.17.3.3 0 0 0-.12-.12.33.33 0 0 0-.16-.04.3.3 0 0 0-.28.17.34.34 0 0 0 .12.46.32.32 0 0 0 .32-.01.3.3 0 0 0 .12-.13c.03-.05.04-.1.04-.16zm.7-5.72c-.01-5.68-4.51-10.29-10.07-10.28-2.6 0-4.96 1-6.74 2.66a9.89 9.89 0 0 0-6.74-2.66h-.07a10.18 10.18 0 0 0-9.99 10.29c0 5.68 4.5 10.29 10.06 10.29 2.6 0 4.96-1 6.74-2.66a9.89 9.89 0 0 0 6.75 2.66c5.55 0 10.05-4.6 10.05-10.3zm-15.76 6.52c-.32.39-.66.76-1.03 1.1l-.02.02c-.37-.34-.71-.73-1.03-1.12zm-2.89-5.65s-.2.87.95.87c.54 0 1.14-.26 1.14-.26l-.19 1.05s-.35.18-1.13.18c-.85 0-1.85-.37-1.85-1.91 0-1.35.8-2.53 1.87-2.53 1.18 0 1.53.88 1.53 1.6 0 .29-.14 1-.14 1zm.1-.87h1.19c0-.06.11-.75-.5-.75-.58 0-.69.68-.69.75zm5.72.42c0 .63.3 1.23 1.06 1.23.36 0 .89-.27.89-.27l-.2 1.2s-.57.14-.93.14c-1.28 0-1.93-.9-1.93-2.27 0-2.06 1.2-3.15 2.44-3.15.56 0 1.2.26 1.2.26l-.17 1.16s-.44-.3-.98-.3c-.73 0-1.38.7-1.38 2zm-1.6 3.93c-.18.38-.37.75-.6 1.1h-3.56c-.22-.35-.42-.71-.6-1.1zm.68-6c-.14.3-.27.57-.4 1.27-.74-.27-.8 1.2-1.11 3.02h-1.1l.67-4.25h1l-.1.62s.36-.67.83-.67l.21.01zm64.09-10.3v23.92c0 .57-.45 1.03-1.01 1.03h-37.16c-.56 0-1-.46-1-1.03v-23.92c0-.57.44-1.03 1-1.03h37.16c.56 0 1 .46 1 1.03zm-36.18 7.02c3.25.8 5.4 2.76 6.3 5.1l-.9-4.48c-.17-.62-.62-.8-1.18-.82h-4.19zm7.95 10l4.25-10.1h-2.86l-2.64 6.9-.29-1.04c-.52-1.26-2-3.06-3.73-4.2l2.41 8.45zm8.03-10.12h-2.7l-1.68 10.13h2.7zm7.7 6.83c.02-1.15-.7-2.03-2.26-2.75-.94-.47-1.52-.79-1.51-1.26 0-.42.49-.87 1.54-.87.88-.02 1.52.18 2.02.39l.24.11.37-2.2a6.82 6.82 0 0 0-2.42-.42c-2.66 0-4.54 1.38-4.56 3.34-.01 1.46 1.34 2.27 2.37 2.75 1.05.5 1.4.82 1.4 1.26-.01.68-.84 1-1.62 1a5.54 5.54 0 0 1-2.54-.54l-.35-.16-.38 2.27c.64.28 1.8.52 3 .54 2.85 0 4.69-1.36 4.7-3.46zm9.5 3.3l-2.18-10.11h-2.09c-.64 0-1.13.18-1.41.84l-4 9.28h2.83l.56-1.52h3.46l.33 1.52zm-3.27-3.58h-2.24l1.07-2.84c-.01.03.23-.58.36-.96l.18.87.63 2.93z"/></defs><g><g transform="translate(-718 -4507)"><use fill="#1677bb" xlink:href="#km9oa"/></g></g></svg>